<svg width="56" height="56" viewBox="0 0 56 56" fill="none" xmlns="http://www.w3.org/2000/svg">
<rect width="56" height="56" rx="9.33333" fill="#E1F3D6"/>
<path d="M19.8331 41.6109V17.1109C19.8331 16.3889 20.1199 15.6965 20.6304 15.186C21.141 14.6755 21.8334 14.3887 22.5553 14.3887H33.4442C34.1662 14.3887 34.8586 14.6755 35.3691 15.186C35.8796 15.6965 36.1665 16.3889 36.1665 17.1109V41.6109M19.8331 41.6109H36.1665M19.8331 41.6109H17.1109C16.3889 41.6109 15.6965 41.3241 15.186 40.8136C14.6755 40.3031 14.3887 39.6107 14.3887 38.8887V30.722C14.3887 30 14.6755 29.3076 15.186 28.7971C15.6965 28.2866 16.3889 27.9998 17.1109 27.9998H19.8331M36.1665 41.6109H38.8887C39.6107 41.6109 40.3031 41.3241 40.8136 40.8136C41.3241 40.3031 41.6109 39.6107 41.6109 38.8887V26.6387C41.6109 25.9167 41.3241 25.2243 40.8136 24.7138C40.3031 24.2033 39.6107 23.9165 38.8887 23.9165H36.1665M25.2776 19.8331H30.722M25.2776 25.2776H30.722M25.2776 30.722H30.722M25.2776 36.1665H30.722" stroke="#5A9437" stroke-width="2.72222" stroke-linecap="round" stroke-linejoin="round"/>
</svg>
