<svg width="56" height="56" viewBox="0 0 56 56" fill="none" xmlns="http://www.w3.org/2000/svg">
<rect width="56" height="56" rx="9.33333" fill="#D6E0F3"/>
<g clip-path="url(#clip0_538_12151)">
<path d="M28 27.666C32.4188 27.666 36 24.0848 36 19.666C36 15.2473 32.4188 11.666 28 11.666C23.5813 11.666 20 15.2473 20 19.666C20 24.0848 23.5813 27.666 28 27.666ZM33.9875 29.7035L31 41.666L29 33.166L31 29.666H25L27 33.166L25 41.666L22.0125 29.7035C17.5562 29.916 14 33.5598 14 38.066V40.666C14 42.3223 15.3438 43.666 17 43.666H39C40.6562 43.666 42 42.3223 42 40.666V38.066C42 33.5598 38.4437 29.916 33.9875 29.7035Z" fill="#164293"/>
</g>
<defs>
<clipPath id="clip0_538_12151">
<rect width="28" height="32" fill="white" transform="translate(14 11.666)"/>
</clipPath>
</defs>
</svg>
