<svg width="550" height="512" viewBox="0 0 512 512" fill="none" preserveAspectRatio="xMidYMid meet" xmlns="http://www.w3.org/2000/svg">
    <path d="M510.913 326.479V30.5511C510.913 13.9462 498.78 0 484.405 0H347.816C337.642 0 328.4 7.09016 324.156 17.7716L310.232 53.0807C305.989 63.7621 296.746 70.8637 286.572 70.8637H47.336C32.9694 70.8637 21.5579 84.057 21.5579 100.663V374.454C21.5579 391.059 32.9694 404.935 47.336 404.935H485.857C486.545 404.935 487.224 404.48 487.897 404.419V461.879H488.271C488.271 469.472 493.615 475.338 500.136 475.338C506.657 475.338 512 469.053 512 461.521V326.479H510.913Z" fill="#F5A623"/>
    <path d="M500.447 474.768C493.945 474.768 488.618 468.909 488.618 461.327H488.245V179.735C488.245 163.15 476.953 149.175 462.619 149.175H26.149C11.8169 149.175 0 163.15 0 179.735V482.015C0 498.598 11.8169 511.877 26.149 511.877H462.619C464.132 511.877 465.613 511.802 467.055 511.513C468.845 511.8 470.671 512 472.53 512C494.419 512 512 491.49 512 466.164C512 465.489 511.961 464.827 511.936 464.16C510.683 470.183 506 474.768 500.447 474.768Z" fill="#FFCC4D"/>
    <path opacity="0.3" d="M451.705 195.951V179.745C451.705 163.155 441.258 149.175 427.997 149.175H24.192C10.9325 149.175 0 163.155 0 179.745V195.951H451.705Z" fill="#F7B731"/>
</svg>
