<svg width="24" height="30" viewBox="0 0 24 20" fill="none" xmlns="http://www.w3.org/2000/svg">
<path d="M16.017 2.04639H7.947C6.37015 2.04824 4.85844 2.67553 3.74353 3.79062C2.62862 4.90572 2.00159 6.41754 2 7.99439L2 16.0644C2.00185 17.6412 2.62914 19.153 3.74424 20.2679C4.85933 21.3828 6.37115 22.0098 7.948 22.0114H16.018C17.5948 22.0095 19.1066 21.3822 20.2215 20.2672C21.3364 19.1521 21.9634 17.6402 21.965 16.0634V7.99339C21.9631 6.41654 21.3359 4.90482 20.2208 3.78992C19.1057 2.67501 17.5938 2.04797 16.017 2.04639V2.04639ZM19.957 16.0634C19.957 16.5808 19.8551 17.0931 19.6571 17.5712C19.4591 18.0492 19.1689 18.4835 18.803 18.8494C18.4371 19.2153 18.0028 19.5055 17.5248 19.7035C17.0468 19.9015 16.5344 20.0034 16.017 20.0034H7.947C6.90222 20.0031 5.90032 19.5879 5.16165 18.849C4.42297 18.1102 4.008 17.1082 4.008 16.0634V7.99339C4.00827 6.94861 4.42349 5.94671 5.16235 5.20803C5.90122 4.46936 6.90322 4.05439 7.948 4.05439H16.018C17.0628 4.05465 18.0647 4.46987 18.8034 5.20874C19.542 5.9476 19.957 6.94961 19.957 7.99439V16.0644V16.0634Z" fill="#009850"/>
<path d="M11.9823 6.86475C10.6137 6.86686 9.30184 7.41153 8.33421 8.37935C7.36658 9.34717 6.82216 10.6592 6.82031 12.0277C6.8219 13.3967 7.36634 14.7091 8.33421 15.6771C9.30209 16.6452 10.6144 17.1899 11.9833 17.1917C13.3524 17.1902 14.665 16.6456 15.6331 15.6775C16.6012 14.7094 17.1457 13.3968 17.1473 12.0277C17.1452 10.6588 16.6003 9.34663 15.632 8.37894C14.6637 7.41125 13.3512 6.86707 11.9823 6.86575V6.86475ZM11.9823 15.1837C11.1456 15.1837 10.3431 14.8513 9.75139 14.2597C9.15971 13.668 8.82731 12.8655 8.82731 12.0287C8.82731 11.192 9.15971 10.3895 9.75139 9.79782C10.3431 9.20615 11.1456 8.87375 11.9823 8.87375C12.8191 8.87375 13.6216 9.20615 14.2132 9.79782C14.8049 10.3895 15.1373 11.192 15.1373 12.0287C15.1373 12.8655 14.8049 13.668 14.2132 14.2597C13.6216 14.8513 12.8191 15.1837 11.9823 15.1837Z" fill="#009850"/>
<path d="M17.1559 8.14148C17.8391 8.14148 18.3929 7.58766 18.3929 6.90448C18.3929 6.2213 17.8391 5.66748 17.1559 5.66748C16.4728 5.66748 15.9189 6.2213 15.9189 6.90448C15.9189 7.58766 16.4728 8.14148 17.1559 8.14148Z" fill="#009850"/>
</svg>
