<svg width="20" height="20" viewBox="0 0 20 20" fill="none" xmlns="http://www.w3.org/2000/svg">
<path d="M19.959 12.5656V19.9446H15.681V13.0596C15.681 11.3296 15.062 10.1496 13.514 10.1496C12.332 10.1496 11.628 10.9456 11.319 11.7146C11.206 11.9896 11.177 12.3726 11.177 12.7576V19.9446H6.897C6.897 19.9446 6.955 8.28456 6.897 7.07556H11.177V8.89956L11.149 8.94156H11.177V8.89956C11.745 8.02456 12.76 6.77356 15.033 6.77356C17.848 6.77356 19.959 8.61356 19.959 12.5656ZM2.421 0.872559C0.958 0.872559 0 1.83256 0 3.09556C0 4.33056 0.93 5.31956 2.365 5.31956H2.393C3.886 5.31956 4.813 4.33056 4.813 3.09556C4.787 1.83256 3.887 0.872559 2.422 0.872559H2.421ZM0.254 19.9446H4.532V7.07556H0.254V19.9446Z" fill="#009850"/>
</svg>
