<svg width="20" height="15" viewBox="0 0 20 15" fill="none" xmlns="http://www.w3.org/2000/svg">
<path d="M15.812 0.863793H4.145C1.855 0.863793 0 2.69879 0 4.96279V10.7308C0 12.9948 1.856 14.8308 4.145 14.8308H15.812C18.102 14.8308 19.957 12.9948 19.957 10.7308V4.96279C19.957 2.69879 18.101 0.862793 15.812 0.862793V0.863793ZM13.009 8.12679L7.552 10.7018C7.51872 10.7178 7.48192 10.7252 7.44503 10.7231C7.40815 10.7211 7.37237 10.7098 7.34103 10.6903C7.3097 10.6707 7.28382 10.6435 7.2658 10.6113C7.24779 10.579 7.23822 10.5427 7.238 10.5058V5.19679C7.23867 5.15967 7.24872 5.12331 7.26722 5.09112C7.28573 5.05892 7.31208 5.03194 7.34382 5.01267C7.37556 4.9934 7.41167 4.98249 7.44877 4.98093C7.48587 4.97938 7.52276 4.98725 7.556 5.00379L13.014 7.73879C13.0504 7.75692 13.0809 7.78494 13.102 7.81962C13.1232 7.8543 13.1341 7.89424 13.1336 7.93486C13.1331 7.97548 13.1211 8.01513 13.0991 8.04926C13.077 8.08338 13.0458 8.1106 13.009 8.12779V8.12679Z" fill="#009850"/>
</svg>
