<svg width="581" height="188" viewBox="0 0 581 188" fill="none" xmlns="http://www.w3.org/2000/svg">
<path d="M0 51.4202H29.18V158.79H87.36V184.3H0V51.4202ZM123.12 51.4202V125.38C123.12 134.92 124.41 143.37 129.36 149.79C134.32 156.21 141.84 160.07 152.3 160.07C162.76 160.07 170.29 156.22 175.24 149.79C180.2 143.37 181.66 134.92 181.66 125.38V51.4202H209.74V127.22C209.74 141.9 206.62 156.77 196.89 167.96C187.16 179.16 171.56 186.31 151.74 186.31C131.92 186.31 116.32 179.34 106.77 167.96C97.23 156.58 93.92 142.45 93.92 127.22V51.4202H123.1H123.12ZM224.27 119.22C224.27 75.0302 259.3 49.4102 295.68 49.4102C313.51 49.4102 327.82 53.1901 338.82 61.7301V93.9702C330.66 81.6402 315.44 75.4801 298.56 75.4801C274.5 75.4801 253.67 90.5602 253.67 117.11C253.67 143.66 269.58 159.97 297.46 159.97C315.67 159.97 333.33 152.76 340.91 139.49C340.91 168.77 323.49 186.32 293.65 186.32C254.39 186.32 224.27 160.79 224.27 119.23V119.22Z" fill="#016938"/>
<path d="M468.02 187.2C508.88 187.26 542.02 154.15 542.02 113.31C542.02 100.74 538.87 88.9098 533.34 78.5498L468.02 187.2Z" fill="#61D836"/>
<path d="M466.98 38.27C426.13 38.27 393.03 71.41 393.09 112.27L501.64 46.9C491.3 41.4 479.51 38.27 466.99 38.27H466.98Z" fill="#61D836"/>
<path d="M466.35 187.55C466.2 146.96 433.33 114.09 392.74 113.94V187.54H466.35V187.55Z" fill="#61D836"/>
<path d="M534.07 76.67L580.169 0L503.52 46.17C516.49 53.07 527.16 63.72 534.08 76.68L534.07 76.67Z" fill="#016938"/>
</svg>
