<svg width="580" height="187" viewBox="0 0 580 187" fill="none" xmlns="http://www.w3.org/2000/svg">
<path d="M0 50.48H29.18V157.85H87.36V183.36H0V50.48ZM123.12 50.48V124.44C123.12 133.98 124.41 142.43 129.36 148.85C134.32 155.27 141.84 159.13 152.3 159.13C162.76 159.13 170.29 155.28 175.24 148.85C180.2 142.43 181.66 133.98 181.66 124.44V50.48H209.74V126.28C209.74 140.96 206.62 155.83 196.89 167.02C187.16 178.22 171.56 185.37 151.74 185.37C131.92 185.37 116.32 178.4 106.77 167.02C97.23 155.64 93.92 141.51 93.92 126.28V50.48H123.1H123.12ZM224.27 118.28C224.27 74.09 259.3 48.47 295.68 48.47C313.51 48.47 327.82 52.25 338.82 60.79V93.03C330.66 80.7 315.44 74.54 298.56 74.54C274.5 74.54 253.67 89.62 253.67 116.17C253.67 142.72 269.58 159.03 297.46 159.03C315.67 159.03 333.33 151.82 340.91 138.55C340.91 167.83 323.49 185.38 293.65 185.38C254.39 185.38 224.27 159.85 224.27 118.29V118.28Z" fill="#F7F7F7"/>
<path d="M468.02 186.26C508.88 186.32 542.02 153.21 542.02 112.37C542.02 99.8001 538.87 87.9701 533.34 77.6101L468.02 186.26Z" fill="#61D836"/>
<path d="M466.98 37.3301C426.13 37.3301 393.03 70.4701 393.09 111.33L501.64 45.9601C491.3 40.4601 479.51 37.3301 466.99 37.3301H466.98Z" fill="#61D836"/>
<path d="M466.35 186.61C466.2 146.02 433.33 113.15 392.74 113V186.6H466.35V186.61Z" fill="#61D836"/>
<path d="M534.07 75.73L579.22 0.630005L578.59 0L503.51 45.22C516.48 52.12 527.15 62.77 534.07 75.73Z" fill="#F7F7F7"/>
</svg>
