<svg width="310" height="310" viewBox="0 0 310 310" fill="none" xmlns="http://www.w3.org/2000/svg">
<path d="M124.97 309.18C192.8 309.28 247.81 254.32 247.81 186.52C247.81 165.66 242.59 146.02 233.4 128.82L124.97 309.18Z" fill="#61D836"/>
<path d="M123.24 61.95C55.4402 61.95 0.480214 116.96 0.580214 184.79L180.77 76.27C163.61 67.14 144.04 61.95 123.25 61.95H123.24Z" fill="#61D836"/>
<path d="M122.19 309.76C121.94 242.38 67.38 187.82 0 187.57V309.75H122.19V309.76Z" fill="#61D836"/>
<path d="M234.61 125.7L309.55 1.03999L308.51 0L183.88 75.06C205.41 86.52 223.12 104.19 234.61 125.7Z" fill="#F7F7F7"/>
</svg>
