<svg width="35" height="32" viewBox="0 0 35 32" fill="none" xmlns="http://www.w3.org/2000/svg">
<path d="M23.6014 26.4846L2.18881 11.7142C0.0189034 10.2174 0.756529 7.101 3.46235 6.36815L26.2201 0.191429C26.7022 0.0174787 27.2188 -0.0389891 27.7271 0.0267169C28.2353 0.0924228 28.7207 0.278405 29.1427 0.56923C29.5646 0.860055 29.9112 1.24733 30.1535 1.69892C30.3958 2.15051 30.527 2.65338 30.5361 3.1658L29.1873 24.1118C29.0274 26.598 25.7713 27.9813 23.6014 26.4846Z" fill="white"/>
<path d="M16.81 30.1305L4.19517 5.46067C3.9068 4.8963 3.77991 4.26324 3.82848 3.63133C3.87705 2.99942 4.09919 2.3932 4.4704 1.87952C4.84163 1.36584 5.3475 0.964663 5.93224 0.72022C6.51698 0.475777 7.15787 0.397574 7.78423 0.494241L31.1627 4.10239C31.7009 4.18547 32.2117 4.39512 32.6532 4.7141C33.0946 5.0331 33.454 5.4523 33.7019 5.93726C33.9497 6.42222 34.0789 6.95908 34.0788 7.5037C34.0787 8.04831 33.9493 8.58515 33.7014 9.07002L22.9318 30.1317C22.6426 30.6945 22.2039 31.1666 21.6638 31.4962C21.1237 31.8258 20.5033 32.0001 19.8706 32C19.2379 31.9999 18.6174 31.8254 18.0775 31.4956C17.5375 31.1657 17.099 30.6934 16.81 30.1305Z" fill="white"/>
<path d="M24.4995 8.72705L20.0107 8.00012L14.4995 9.57024L16.6993 14.0857L21.8506 17.8154C21.9642 17.8968 22.0892 17.9591 22.2211 18.0001L24.1777 13.9854L24.4995 8.72705Z" fill="white"/>
</svg>
