<svg width="25" height="30" viewBox="0 0 25 30" fill="none" xmlns="http://www.w3.org/2000/svg">
<path d="M14.025 4.65002V0.400024H0.625V29.6H14.025V25.35C11.28 25.35 8.6474 24.2595 6.70644 22.3185C4.76544 20.3775 3.675 17.745 3.675 15C3.675 12.255 4.76544 9.62243 6.70644 7.68147C8.6474 5.74047 11.28 4.65002 14.025 4.65002Z" fill="white"/>
<path d="M14.0249 4.65002V25.35C16.7699 25.35 19.4025 24.2595 21.3435 22.3185C23.2845 20.3775 24.3749 17.745 24.3749 15C24.3749 12.255 23.2845 9.62243 21.3435 7.68147C19.4025 5.74047 16.7699 4.65002 14.0249 4.65002Z" fill="white"/>
</svg>
