<svg width="22" height="32" viewBox="0 0 22 32" fill="none" xmlns="http://www.w3.org/2000/svg">
<path d="M9.95838 19.9817V28.1025C9.95838 28.4138 9.83471 28.7124 9.61457 28.9324C9.39453 29.1526 9.09598 29.2762 8.78463 29.2762C8.47339 29.2762 8.17485 29.1526 7.9547 28.9324C7.73455 28.7124 7.61089 28.4138 7.61089 28.1025V19.993C7.93774 20.2317 8.32951 20.3649 8.73409 20.3749C9.17506 20.3874 9.60715 20.2487 9.95838 19.9817ZM19.9549 17.6343C19.657 17.6343 19.3713 17.7526 19.1607 17.9632C18.9501 18.1738 18.8317 18.4596 18.8317 18.7575V20.1727C18.8317 20.484 18.9553 20.7826 19.1755 21.0026C19.3955 21.2228 19.6941 21.3464 20.0054 21.3464C20.3168 21.3464 20.6153 21.2228 20.8353 21.0026C21.0555 20.7826 21.1792 20.484 21.1792 20.1727V18.8136C21.1879 18.6526 21.1619 18.4915 21.1028 18.3414C21.0437 18.1914 20.9531 18.0557 20.8368 17.9438C20.7207 17.8319 20.5817 17.7464 20.4296 17.6929C20.2775 17.6395 20.1155 17.6195 19.9549 17.6343ZM5.06122 23.0593C4.65706 23.0472 4.2658 22.9142 3.93802 22.6774V30.8206C3.93802 31.1335 4.06227 31.4335 4.28345 31.6546C4.50462 31.8758 4.80459 32 5.11738 32C5.43017 32 5.73014 31.8758 5.95131 31.6546C6.17249 31.4335 6.29674 31.1335 6.29674 30.8206V22.7336C5.92996 22.9707 5.4972 23.0848 5.06122 23.0593ZM16.2932 15.1969C16.141 15.1893 15.989 15.2127 15.8461 15.2658C15.7033 15.3188 15.5728 15.4003 15.4624 15.5053C15.3521 15.6105 15.2644 15.7368 15.2044 15.8769C15.1445 16.017 15.1136 16.1678 15.1139 16.3201V22.5763C15.1139 22.8892 15.2381 23.1892 15.4593 23.4103C15.6805 23.6315 15.9804 23.7557 16.2932 23.7557C16.606 23.7557 16.906 23.6315 17.1272 23.4103C17.3484 23.1892 17.4726 22.8892 17.4726 22.5763V16.3987C17.4816 16.2367 17.4553 16.0746 17.3955 15.9236C17.3358 15.7727 17.2441 15.6364 17.1266 15.5243C17.0092 15.4122 16.8689 15.3269 16.7153 15.2743C16.5618 15.2216 16.3986 15.2029 16.2371 15.2194L16.2932 15.1969ZM12.5642 17.6006C12.1411 17.5976 11.7293 17.4643 11.3848 17.2187V25.3843C11.3848 25.6972 11.5091 25.9972 11.7302 26.2183C11.9515 26.4395 12.2514 26.5637 12.5642 26.5637C12.877 26.5637 13.1769 26.4395 13.3982 26.2183C13.6193 25.9972 13.7436 25.6972 13.7436 25.3843V17.2299C13.3873 17.4953 12.9523 17.6337 12.508 17.623L12.5642 17.6006ZM2.51155 23.8568V1.04458C2.5086 0.766506 2.39606 0.500847 2.19837 0.305264C2.00069 0.109681 1.73383 -1.12311e-05 1.45575 8.625e-10H1.20864C0.930559 -1.12311e-05 0.663698 0.109681 0.466014 0.305264C0.268331 0.500847 0.155786 0.766506 0.152832 1.04458V23.8568C0.152832 24.1368 0.264074 24.4054 0.462072 24.6034C0.66007 24.8014 0.928627 24.9126 1.20864 24.9126H1.45575C1.73577 24.9126 2.00432 24.8014 2.20231 24.6034C2.40032 24.4054 2.51155 24.1368 2.51155 23.8568ZM5.18477 22.1945H4.93767C4.65766 22.1945 4.3891 22.0833 4.1911 21.8852C3.9931 21.6872 3.88186 21.4187 3.88186 21.1386V3.76272C3.88483 3.48466 3.99736 3.21898 4.19504 3.02341C4.39273 2.82783 4.65959 2.71814 4.93767 2.71815H5.18477C5.46285 2.71814 5.72972 2.82783 5.9274 3.02341C6.12508 3.21898 6.23763 3.48466 6.24058 3.76272V21.1611C6.24058 21.4411 6.12934 21.7097 5.93134 21.9077C5.73334 22.1057 5.46479 22.2169 5.18477 22.2169V22.1945ZM8.90257 19.5212H8.64423C8.36725 19.5212 8.1015 19.4112 7.90562 19.2153C7.70973 19.0194 7.59966 18.7538 7.59966 18.4767V6.45841C7.5982 6.32029 7.62414 6.18325 7.67592 6.05521C7.7277 5.92718 7.80442 5.8107 7.90157 5.71251C7.99873 5.61432 8.11442 5.53637 8.2419 5.48318C8.36939 5.42998 8.50608 5.40259 8.64423 5.4026H8.90257C9.18067 5.40556 9.44631 5.5181 9.64186 5.71578C9.83752 5.91346 9.94715 6.18032 9.94715 6.45841V18.4767C9.94715 18.7538 9.83707 19.0194 9.64119 19.2153C9.4453 19.4112 9.17966 19.5212 8.90257 19.5212ZM12.6204 16.7694H12.3845C12.1064 16.7694 11.8395 16.6598 11.6418 16.4641C11.4441 16.2686 11.3316 16.0029 11.3287 15.7248V9.25518C11.3195 9.11096 11.3399 8.9664 11.3889 8.83038C11.4377 8.69448 11.5141 8.56991 11.6131 8.46467C11.712 8.35931 11.8315 8.27552 11.9643 8.21824C12.097 8.16107 12.2399 8.13164 12.3845 8.13198H12.6316C12.9116 8.13198 13.1802 8.24317 13.3782 8.44119C13.5762 8.63921 13.6874 8.90777 13.6874 9.18779V15.7024C13.6889 15.842 13.6627 15.9805 13.6102 16.1098C13.5579 16.2392 13.4804 16.357 13.3821 16.4562C13.284 16.5554 13.1671 16.6342 13.0382 16.688C12.9094 16.7418 12.7712 16.7694 12.6316 16.7694H12.6204ZM16.3494 14.3545H16.1023C15.8223 14.3545 15.5537 14.2433 15.3557 14.0453C15.1577 13.8473 15.0465 13.5787 15.0465 13.2987V11.6251C15.0494 11.347 15.1619 11.0814 15.3596 10.8858C15.5573 10.6902 15.8242 10.5806 16.1023 10.5806H16.3494C16.6275 10.5806 16.8944 10.6902 17.0921 10.8858C17.2897 11.0814 17.4023 11.347 17.4052 11.6251V13.2987C17.4052 13.5768 17.2956 13.8437 17.0999 14.0414C16.9044 14.239 16.6387 14.3516 16.3606 14.3545H16.3494Z" fill="white"/>
</svg>
