<svg width="31" height="32" viewBox="0 0 31 32" fill="none" xmlns="http://www.w3.org/2000/svg">
<path fill-rule="evenodd" clip-rule="evenodd" d="M0.133301 16.3482L0.134845 16.1879L0.138029 16.0275L0.142861 15.8671L0.149333 15.7067L0.157461 15.5463L0.167229 15.3859L0.178653 15.2256L0.191717 15.0653L0.206437 14.905L0.222805 14.7448L0.240821 14.5848L0.260477 14.4248L0.281789 14.265L0.304749 14.1053L0.329349 13.9458L0.355597 13.7865L0.383493 13.6273L0.413021 13.4684L0.444197 13.3097L0.477013 13.1512L0.511469 12.993L0.547549 12.835L0.585277 12.6774L0.624621 12.5201L0.665605 12.3631L0.708205 12.2064L0.752437 12.0501L0.798285 11.8942L0.845749 11.7386L0.894821 11.5835L0.945509 11.4288L0.997805 11.2745L1.0517 11.1206L1.10719 10.9673L1.16428 10.8144L1.22295 10.662L1.28321 10.5102L1.34505 10.3588L1.40847 10.2081L1.47345 10.0578L1.54 9.90816L1.60812 9.75912L1.67778 9.61072L1.749 9.46288L1.82176 9.31568L1.89605 9.1692L1.97188 9.02336L2.04923 8.87816L2.12809 8.73376L2.20847 8.59L2.29036 8.44696L2.37373 8.30472L2.4586 8.1632L2.54496 8.02248L2.63279 7.88256L2.72208 7.74344L2.81284 7.6052L2.90506 7.46768L2.99872 7.33112L3.09381 7.19536L3.19033 7.06048L3.28827 6.92656L3.38762 6.79344L3.48837 6.66136L3.59052 6.53016L3.69405 6.39987L3.79896 6.27059L3.90523 6.14229L4.01285 6.01498L4.12183 5.88866L4.23214 5.76338L4.34377 5.63913L4.45673 5.51592L4.57099 5.39378L4.68654 5.2727L4.80338 5.15272L4.92149 5.03383L5.04087 4.91606L5.1615 4.79941L5.28337 4.6839L5.40648 4.56954L5.5308 4.45634L5.65632 4.34433L5.78305 4.2335L5.91096 4.12386L6.04004 4.01544L6.17029 3.90825L6.30168 3.80229L6.43421 3.69758L6.56786 3.59412L6.70258 3.49194L6.8385 3.39104L6.97546 3.29144L7.11346 3.19314L7.2525 3.09616L7.39266 3.0005L7.53378 2.90618L7.67594 2.81321L7.81914 2.72159L7.96338 2.63135L8.1085 2.54249L8.25466 2.45501L8.4017 2.36894L8.5497 2.28427L8.69866 2.20102L8.8485 2.11921L8.99922 2.03882L9.15082 1.9599L9.3033 1.88242L9.45666 1.80641L9.61082 1.73187L9.76586 1.65882L9.92162 1.58726L10.0783 1.5172L10.2356 1.44865L10.3938 1.38162L10.5527 1.31611L10.7123 1.25214L10.8726 1.1897L11.0336 1.12882L11.1953 1.06948L11.3577 1.01172L11.5207 0.95552L11.6844 0.900896L11.8487 0.847864L12.0135 0.796416L12.1791 0.746568L12.3451 0.698328L12.5117 0.651696L12.6789 0.606672L12.8466 0.563272L13.0147 0.521504L13.1834 0.481376L13.3526 0.442872L13.5222 0.406024L13.6922 0.370816L13.8627 0.337264L14.0335 0.305376L14.2048 0.275144L14.3765 0.246584L14.5485 0.219696L14.7208 0.19448L14.8935 0.170952L15.0664 0.149104L15.2397 0.128944L15.4132 0.110464L15.587 0.093696L15.761 0.078616L15.9352 0.0652321L16.1096 0.0535601L17.0475 0L17.1011 4.51894L17.1317 4.51858L17.2612 4.5184L17.3907 4.51949L17.5203 4.52185L17.6499 4.52549L17.7795 4.5304L17.9092 4.53658L18.0389 4.54404L18.1686 4.55278L18.2982 4.56279L18.4279 4.57409L18.5574 4.58666L18.6869 4.60052L18.8163 4.61565L18.9456 4.63206L19.0748 4.64974L19.2039 4.6687L19.3329 4.68895L19.4618 4.71047L19.5904 4.73326L19.719 4.75734L19.8473 4.78268L19.9754 4.8093L20.1034 4.83719L20.2311 4.86635L20.3585 4.89678L20.4858 4.92847L20.6127 4.96144L20.7394 4.99566L20.8658 5.03115L20.9919 5.0679L21.1177 5.1059L21.2431 5.14515L21.3683 5.18566L21.4931 5.22742L21.6175 5.27042L21.7415 5.31467L21.8651 5.36015L21.9883 5.40688L22.1111 5.45483L22.2335 5.50402L22.3555 5.55444L22.4769 5.60607L22.5979 5.65893L22.7185 5.713L22.8385 5.76828L22.958 5.82476L23.0771 5.88245L23.1955 5.94134L23.3135 6.00142L23.4308 6.06268L23.5476 6.12513L23.6639 6.18876L23.7795 6.25356L23.8945 6.31953L24.0089 6.38666L24.1227 6.45496L24.2358 6.5244L24.3483 6.59496L24.46 6.66672L24.5711 6.73952L24.6815 6.81352L24.7913 6.88864L24.9003 6.9648L25.0086 7.04216L25.1161 7.12056L25.2228 7.20008L25.3289 7.28072L25.4341 7.3624L25.5386 7.4452L25.6422 7.52896L25.7451 7.61384L25.8471 7.69984L25.9483 7.7868L26.0487 7.8748L26.1482 7.96384L26.2467 8.05392L26.3445 8.14504L26.4414 8.23712L26.5374 8.33016L26.6324 8.42424L26.7266 8.51928L26.8198 8.61536L26.9121 8.71232L27.0034 8.81024L27.0938 8.90912L27.1831 9.00896L27.2715 9.10968L27.359 9.21136L27.4454 9.31392L27.5308 9.41736L27.6152 9.52176L27.6986 9.62696L27.7809 9.73304L27.8622 9.84L27.9424 9.94784L28.0215 10.0565L28.0996 10.166L28.1766 10.2763L28.2525 10.3874L28.3273 10.4993L28.401 10.612L28.4735 10.7255L28.5449 10.8398L28.6152 10.9547L28.6843 11.0705L28.7523 11.187L28.8191 11.3042L28.8848 11.4221L28.9493 11.5407L29.0126 11.66L29.0747 11.78L29.1355 11.9006L29.1952 12.0219L29.2537 12.1439L29.311 12.2665L29.367 12.3897L29.4218 12.5135L29.4753 12.6379L29.5275 12.763L29.5786 12.8885L29.6283 13.0146L29.6768 13.1413L29.724 13.2686L29.7699 13.3962L29.8146 13.5246L29.8579 13.6533L29.9 13.7826L29.9407 13.9122L29.9802 14.0424L30.0183 14.173L30.0551 14.3041L30.0905 14.4356L30.1247 14.5675L30.1574 14.6998L30.1889 14.8325L30.219 14.9655L30.2477 15.099L30.2751 15.2326L30.3011 15.3668L30.3258 15.5012L30.3491 15.6359L30.3711 15.7709L30.3916 15.9062L30.4108 16.0418L30.4286 16.1775L30.445 16.3136L30.46 16.4498L30.4736 16.5863L30.4859 16.723L30.4967 16.8598L30.5062 16.9969L30.5142 17.1341L30.5208 17.2714L30.5261 17.4089L30.5299 17.5464L30.5323 17.6841L30.5333 17.8218L30.5329 17.9597L30.5311 18.0976L30.5278 18.2356L30.5231 18.3735L30.5171 18.5115L30.5096 18.6495L30.5007 18.7875L30.4903 18.9255L30.4786 19.0634L30.4654 19.2014L30.4508 19.3392L30.4347 19.4769L30.4173 19.6146L30.3985 19.7521L30.3782 19.8895L30.3565 20.0268L30.3334 20.1639L30.3088 20.3009L30.2829 20.4377L30.2555 20.5743L30.2267 20.7107L30.1965 20.8469L30.1649 20.9829L30.1319 21.1186L30.0975 21.254L30.0616 21.3891L30.0244 21.524L29.9858 21.6586L29.9458 21.7928L29.9043 21.9268L29.8615 22.0603L29.8173 22.1936L29.7717 22.3264L29.7247 22.4589L29.6763 22.591L29.6266 22.7226L29.5755 22.8538L29.523 22.9846L29.4691 23.1149L29.4139 23.2447L29.3574 23.3742L29.2995 23.503L29.2402 23.6314L29.1795 23.7592L29.1176 23.8865L29.0543 24.0133L28.9897 24.1394L28.9237 24.2651L28.8565 24.3901L28.7879 24.5146L28.718 24.6383L28.6468 24.7615L28.5743 24.8841L28.5006 25.0059L28.4255 25.1272L28.3491 25.2477L28.2715 25.3675L28.1927 25.4866L28.1126 25.605L28.0312 25.7227L27.9486 25.8397L27.8647 25.9558L27.7796 26.0713L27.6933 26.1859L27.6058 26.2998L27.5171 26.4127L27.4271 26.525L27.336 26.6363L27.2437 26.7468L27.1502 26.8565L27.0555 26.9653L26.9597 27.0732L26.8627 27.1802L26.7647 27.2864L26.6655 27.3916L26.5651 27.4959L26.4636 27.5992L26.361 27.7016L26.2573 27.803L26.1526 27.9035L26.0467 28.003L25.9399 28.1015L25.8319 28.199L25.7228 28.2954L25.6128 28.3909L25.5017 28.4854L25.3896 28.5787L25.2765 28.671L25.1624 28.7622L25.0473 28.8524L24.9312 28.9414L24.8142 29.0294L24.6962 29.1162L24.5773 29.202L24.4574 29.2866L24.3366 29.3701L24.2149 29.4524L24.0923 29.5335L23.9688 29.6135L23.8445 29.6924L23.7193 29.77L23.5932 29.8465L23.4663 29.9217L23.3385 29.9958L23.21 30.0686L23.0806 30.1401L22.9505 30.2105L22.8195 30.2795L22.6879 30.3474L22.5554 30.414L22.4222 30.4793L22.2883 30.5433L22.1536 30.6061L22.0183 30.6675L21.8823 30.7277L21.7455 30.7865L21.6082 30.844L21.4702 30.9002L21.3315 30.9551L21.1923 31.0086L21.0523 31.0609L20.9119 31.1117L20.7707 31.1612L20.6291 31.2093L20.487 31.2561L20.3442 31.3014L20.2009 31.3454L20.0571 31.3881L19.9129 31.4293L19.7681 31.4691L19.6229 31.5076L19.4771 31.5446L19.3311 31.5802L19.1845 31.6144L19.0375 31.6471L18.8901 31.6785L18.7423 31.7084L18.5942 31.7369L18.4457 31.7639L18.2969 31.7894L18.1477 31.8136L17.9983 31.8363L17.8484 31.8575L17.6984 31.8773L17.5481 31.8956L17.3975 31.9124L17.2467 31.9278L17.0956 31.9417L16.9444 31.9541L16.793 31.965L16.6414 31.9745L16.4895 31.9825L16.3376 31.989L16.1856 31.9939L16.0334 31.9974L15.8811 31.9994L15.7287 32L15.5763 31.999L15.4239 31.9966L15.2713 31.9926L15.1187 31.9871L14.9662 31.9802L14.8136 31.9718L14.6611 31.9618L14.5086 31.9503L14.3562 31.9374L14.2038 31.9229L14.0515 31.907L13.8993 31.8895L13.7472 31.8706L13.5952 31.8501L13.4435 31.8281L13.2918 31.8046L13.1403 31.7797L12.9891 31.7533L12.8379 31.7253L12.6871 31.6958L12.5365 31.665L12.3862 31.6325L12.236 31.5986L12.0863 31.5632L11.9367 31.5263L11.7875 31.4879L11.6387 31.4481L11.4902 31.4068L11.342 31.364L11.1942 31.3198L11.0468 31.274L10.8999 31.2268L10.7533 31.1782L10.6071 31.128L10.4615 31.0764L10.3163 31.0234L10.1715 30.969L10.0273 30.913L9.88362 30.8557L9.74042 30.7969L9.59778 30.7366L9.4557 30.675L9.31418 30.612L9.17322 30.5475L9.0329 30.4816L8.89322 30.4143L8.75418 30.3456L8.6157 30.2755L8.47794 30.2041L8.3409 30.1312L8.20442 30.057L8.06874 29.9814L7.93378 29.9045L7.79954 29.8262L7.66602 29.7465L7.5333 29.6655L7.4013 29.5831L7.2701 29.4995L7.13978 29.4145L7.01018 29.3282L6.88146 29.2406L6.75362 29.1517L6.62658 29.0615L6.50043 28.97L6.37516 28.8773L6.2508 28.7832L6.12735 28.6879L6.00482 28.5914L5.88323 28.4936L5.7626 28.3946L5.64292 28.2944L5.52423 28.193L5.40652 28.0903L5.28983 27.9864L5.17415 27.8814L5.0595 27.7752L4.94588 27.6678L4.83333 27.5593L4.72185 27.4495L4.61143 27.3387L4.50211 27.2268L4.39389 27.1137L4.28679 26.9995L4.18081 26.8842L4.07598 26.7678L3.97229 26.6504L3.86976 26.5319L3.76841 26.4123L3.66825 26.2918L3.56928 26.1701L3.47151 26.0474L3.37496 25.9238L3.27964 25.7991L3.18556 25.6734L3.09273 25.5468L3.00116 25.4192L2.91086 25.2906L2.82184 25.1612L2.73412 25.0308L2.64769 24.8994L2.56258 24.7673L2.47878 24.6342L2.39632 24.5002L2.3152 24.3654L2.23542 24.2296L2.15701 24.0931L2.07996 23.9558L2.00429 23.8176L1.93001 23.6786L1.85712 23.5388L1.78564 23.3983L1.71556 23.257L1.64691 23.115L1.57968 22.9722L1.51389 22.8288L1.44955 22.6846L1.38665 22.5398L1.32522 22.3942L1.26526 22.248L1.20676 22.1011L1.14976 21.9536L1.09424 21.8055L1.04022 21.6568L0.987701 21.5075L0.936685 21.3577L0.887189 21.2072L0.839221 21.0562L0.792773 20.9047L0.747869 20.7527L0.704501 20.6002L0.662677 20.4471L0.622405 20.2937L0.583693 20.1398L0.546541 19.9854L0.510965 19.8306L0.476957 19.6753L0.444525 19.5197L0.413677 19.3637L0.384413 19.2074L0.356741 19.0506L0.330669 18.8936L0.306189 18.7362L0.283317 18.5786L0.262053 18.4206L0.242405 18.2623L0.224365 18.1038L0.207941 17.9451L0.193141 17.7862L0.179965 17.627L0.168413 17.4677L0.158493 17.3082L0.150205 17.1485L0.143549 16.9886L0.138525 16.8287L0.135141 16.6686L0.133405 16.5085L0.133301 16.3482ZM15.6358 4.61359L15.5993 1.53343L15.5647 1.53678L15.4056 1.5537L15.247 1.57217L15.0884 1.5922L14.9305 1.61372L14.7727 1.63681L14.6151 1.66144L14.458 1.68758L14.3011 1.71529L14.1449 1.74443L13.9885 1.77521L13.8332 1.80737L13.6777 1.84115L13.523 1.87637L13.3684 1.91315L13.2146 1.95134L13.0611 1.99107L12.9081 2.03228L12.7555 2.07498L12.6037 2.1191L12.4521 2.16475L12.3013 2.21182L12.1509 2.26038L12.0013 2.31028L11.8519 2.36176L11.7034 2.41462L11.5555 2.46887L11.4081 2.52461L11.2615 2.5817L11.1156 2.64018L10.9702 2.70015L10.8255 2.76149L10.6815 2.82422L10.5383 2.88828L10.3958 2.95373L10.2541 3.0205L10.1129 3.08874L9.97274 3.15822L9.8333 3.22906L9.69466 3.30124L9.55682 3.37475L9.41994 3.44952L9.28362 3.52567L9.14818 3.60314L9.01394 3.68172L8.8801 3.76183L8.74754 3.84301L8.61586 3.92545L8.48482 4.00924L8.35482 4.09426L8.22578 4.18051L8.09794 4.26778L7.97058 4.3566L7.8445 4.44637L7.71938 4.53738L7.59514 4.62963L7.47202 4.72298L7.35002 4.81746L7.22874 4.91326L7.10882 5.00997L6.98978 5.10795L6.87186 5.207L6.75498 5.3072L6.6393 5.40836L6.52449 5.5108L6.41098 5.61415L6.29845 5.7187L6.18721 5.82412L6.077 5.93069L5.968 6.03822L5.86013 6.14681L5.75329 6.25652L5.64786 6.36698L5.54361 6.4784L5.44029 6.59112L5.33841 6.70456L5.23776 6.8188L5.13816 6.93424L5.04 7.0504L4.94292 7.1676L4.84716 7.2856L4.75265 7.40456L4.65936 7.52432L4.56746 7.64488L4.47676 7.76632L4.3873 7.88872L4.29928 8.01168L4.21244 8.13568L4.12699 8.26032L4.04285 8.38576L3.95998 8.512L3.87851 8.63896L3.79837 8.76656L3.71958 8.89496L3.6422 9.024L3.56608 9.15384L3.49134 9.2844L3.41807 9.41544L3.34611 9.5472L3.27552 9.67968L3.20637 9.81272L3.13858 9.9464L3.07224 10.0806L3.00729 10.2154L2.94377 10.3507L2.88164 10.4867L2.82097 10.6231L2.76168 10.7602L2.70384 10.8977L2.64749 11.0356L2.59253 11.1741L2.53902 11.313L2.48698 11.4524L2.43638 11.5922L2.38728 11.7324L2.33959 11.8731L2.29338 12.0142L2.24865 12.1556L2.2054 12.2973L2.1636 12.4395L2.1233 12.5819L2.08448 12.7247L2.04712 12.8678L2.01126 13.0112L1.97689 13.1548L1.94401 13.2987L1.91262 13.4429L1.88272 13.5873L1.85432 13.7318L1.82741 13.8766L1.802 14.0216L1.77809 14.1668L1.75568 14.3121L1.73477 14.4575L1.71536 14.6031L1.69745 14.7488L1.68104 14.8946L1.66614 15.0405L1.65274 15.1864L1.64084 15.3323L1.63044 15.4784L1.62154 15.6245L1.61414 15.7705L1.60824 15.9166L1.60384 16.0626L1.60095 16.2086L1.59954 16.3545L1.59964 16.5004L1.60122 16.6462L1.6043 16.7919L1.60887 16.9375L1.61492 17.083L1.62248 17.2283L1.6315 17.3734L1.64201 17.5185L1.654 17.6633L1.66748 17.8079L1.68241 17.9524L1.69883 18.0966L1.71671 18.2406L1.73605 18.3842L1.75686 18.5277L1.77913 18.6709L1.80284 18.8137L1.82802 18.9562L1.85464 19.0985L1.88269 19.2403L1.91219 19.3819L1.94312 19.523L1.97548 19.6638L2.00926 19.8042L2.04446 19.9442L2.08108 20.0838L2.1191 20.2229L2.15854 20.3616L2.19937 20.4998L2.2416 20.6376L2.28521 20.7749L2.3302 20.9116L2.37656 21.0478L2.42431 21.1835L2.47341 21.3187L2.52386 21.4533L2.57569 21.5874L2.62884 21.7208L2.68332 21.8537L2.73916 21.9859L2.7963 22.1175L2.85477 22.2486L2.91455 22.379L2.97563 22.5086L3.038 22.6377L3.10166 22.766L3.1666 22.8937L3.23281 23.0206L3.30029 23.1469L3.36902 23.2724L3.439 23.3971L3.51021 23.5211L3.58266 23.6444L3.65634 23.7668L3.7312 23.8885L3.80731 24.0094L3.88458 24.1294L3.96306 24.2486L4.04272 24.367L4.12352 24.4846L4.20549 24.6013L4.28864 24.7171L4.37289 24.8321L4.45831 24.9462L4.54481 25.0593L4.63246 25.1715L4.72116 25.2828L4.81099 25.3932L4.90192 25.5027L4.99386 25.6112L5.0869 25.7187L5.18097 25.8253L5.27612 25.9309L5.37226 26.0354L5.4694 26.139L5.56758 26.2416L5.66674 26.3432L5.76692 26.4438L5.86804 26.5432L5.97015 26.6417L6.07317 26.739L6.17715 26.8354L6.28208 26.9307L6.38792 27.0249L6.4946 27.1179L6.60226 27.2099L6.71082 27.3008L6.8201 27.3906L6.93042 27.4793L7.04146 27.5667L7.15338 27.6531L7.2661 27.7384L7.3797 27.8225L7.49402 27.9054L7.60914 27.9871L7.72498 28.0677L7.8417 28.1471L7.95906 28.2253L8.0773 28.3023L8.1961 28.3782L8.3157 28.4527L8.43602 28.5262L8.5569 28.5983L8.67858 28.6693L8.80082 28.739L8.92378 28.8074L9.0473 28.8746L9.17154 28.9406L9.29626 29.0054L9.42162 29.0689L9.54762 29.131L9.67418 29.192L9.80122 29.2517L9.92882 29.3101L10.0569 29.3671L10.1856 29.423L10.3147 29.4774L10.4444 29.5307L10.5745 29.5826L10.7051 29.6332L10.8361 29.6826L10.9675 29.7306L11.0993 29.7772L11.2316 29.8226L11.3643 29.8666L11.4973 29.9094L11.6306 29.9507L11.7644 29.9908L11.8984 30.0295L12.0328 30.0669L12.1675 30.103L12.3025 30.1377L12.4378 30.171L12.5732 30.203L12.7091 30.2338L12.8451 30.263L12.9812 30.291L13.1177 30.3177L13.2543 30.343L13.3911 30.3669L13.5281 30.3894L13.6652 30.4106L13.8025 30.4305L13.9399 30.449L14.0774 30.4662L14.215 30.4819L14.3527 30.4963L14.4904 30.5094L14.6283 30.5211L14.7661 30.5315L14.9039 30.5405L15.0419 30.5482L15.1797 30.5544L15.3175 30.5594L15.4554 30.563L15.5932 30.5651L15.7309 30.566L15.8686 30.5655L16.0062 30.5637L16.1436 30.5606L16.281 30.556L16.4183 30.5502L16.5554 30.543L16.6923 30.5344L16.8291 30.5246L16.9657 30.5134L17.1021 30.5008L17.2383 30.4869L17.3743 30.4717L17.5099 30.4552L17.6455 30.4374L17.7807 30.4182L17.9156 30.3977L18.0503 30.3759L18.1847 30.3528L18.3187 30.3284L18.4524 30.3027L18.5858 30.2758L18.7188 30.2474L18.8515 30.2179L18.9837 30.187L19.1156 30.1549L19.2471 30.1215L19.3781 30.0868L19.5087 30.0509L19.6389 30.0137L19.7686 29.9752L19.8979 29.9355L20.0266 29.8946L20.1549 29.8524L20.2827 29.809L20.4098 29.7644L20.5366 29.7185L20.6627 29.6714L20.7883 29.6231L20.9134 29.5737L21.0378 29.523L21.1616 29.4711L21.2849 29.4181L21.4075 29.3638L21.5295 29.3085L21.6509 29.2519L21.7716 29.1942L21.8916 29.1354L22.0111 29.0753L22.1297 29.0142L22.2477 28.9519L22.3651 28.8885L22.4815 28.824L22.5974 28.7584L22.7124 28.6918L22.8269 28.6239L22.9403 28.5551L23.0533 28.4851L23.1652 28.4142L23.2764 28.3421L23.3869 28.269L23.4966 28.1947L23.6052 28.1197L23.7131 28.0434L23.8203 27.9662L23.9265 27.8881L24.0319 27.8088L24.1363 27.7287L24.2401 27.6474L24.3427 27.5654L24.4445 27.4823L24.5455 27.3982L24.6455 27.3132L24.7445 27.2274L24.8427 27.1405L24.9398 27.0528L25.036 26.9642L25.1313 26.8746L25.2255 26.7843L25.3188 26.693L25.4111 26.6008L25.5024 26.5078L25.5927 26.414L25.6819 26.3194L25.7701 26.2241L25.8575 26.1276L25.9435 26.0306L26.0287 25.9327L26.1127 25.8342L26.1958 25.7347L26.2777 25.6346L26.3585 25.5338L26.4383 25.4321L26.517 25.3298L26.5947 25.2267L26.6711 25.123L26.7465 25.0186L26.8209 24.9134L26.8939 24.8078L26.9659 24.7013L27.0367 24.5943L27.1065 24.4866L27.1752 24.3782L27.2426 24.2694L27.3088 24.1599L27.374 24.0496L27.4379 23.9391L27.5007 23.8278L27.5623 23.716L27.6227 23.6038L27.6819 23.4909L27.74 23.3774L27.7967 23.2639L27.8524 23.1494L27.9069 23.0346L27.9601 22.9194L28.0121 22.8037L28.0629 22.6875L28.1124 22.571L28.1608 22.4539L28.2079 22.3365L28.2538 22.219L28.2984 22.1006L28.3418 21.9822L28.384 21.8632L28.425 21.744L28.4647 21.6244L28.503 21.5048L28.5403 21.3843L28.5761 21.264L28.6107 21.1433L28.6442 21.0224L28.6763 20.901L28.7071 20.7797L28.7368 20.6579L28.7651 20.5359L28.7923 20.4138L28.8181 20.2914L28.8426 20.1691L28.8659 20.0462L28.8879 19.9237L28.9086 19.8006L28.928 19.6775L28.9462 19.5544L28.9631 19.431L28.9787 19.3078L28.9931 19.1841L29.0062 19.0608L29.018 18.9371L29.0285 18.8137L29.0378 18.6898L29.0458 18.5665L29.0525 18.4427L29.0579 18.3189L29.0621 18.1954L29.0651 18.0721L29.0667 17.9483L29.0671 17.8248L29.0662 17.7014L29.064 17.5782L29.0606 17.4549L29.0559 17.3321L29.0499 17.2088L29.0427 17.0861L29.0343 16.9634L29.0246 16.841L29.0136 16.7185L29.0015 16.5965L28.988 16.4744L28.9733 16.3527L28.9574 16.2311L28.9403 16.1099L28.9218 15.9886L28.9022 15.8679L28.8814 15.7476L28.8593 15.6272L28.8359 15.5072L28.8115 15.3877L28.7857 15.2681L28.7589 15.1494L28.7307 15.0305L28.7015 14.9124L28.6708 14.7942L28.6391 14.6768L28.6063 14.5596L28.5722 14.4426L28.537 14.3264L28.5006 14.2106L28.4629 14.0948L28.4243 13.9799L28.3843 13.8651L28.3433 13.751L28.3011 13.6372L28.2578 13.5242L28.2132 13.4113L28.1676 13.299L28.121 13.1875L28.0732 13.0765L28.0241 12.9656L27.9743 12.8558L27.923 12.746L27.8708 12.6373L27.8175 12.529L27.7631 12.421L27.7077 12.314L27.6511 12.2074L27.5935 12.1014L27.5351 11.9963L27.4753 11.8915L27.4147 11.7876L27.3528 11.6842L27.2903 11.5818L27.2263 11.4796L27.1617 11.3784L27.0959 11.2777L27.0291 11.1778L26.9615 11.0789L26.8927 10.9803L26.8231 10.8826L26.7525 10.7857L26.6809 10.6896L26.6084 10.5941L26.535 10.4995L26.4607 10.4056L26.3854 10.3126L26.3092 10.2203L26.2321 10.1288L26.1541 10.0382L26.0753 9.94832L25.9957 9.85936L25.9151 9.7712L25.8335 9.68376L25.7515 9.59752L25.6682 9.51176L25.5844 9.4272L25.4997 9.34328L25.4143 9.2604L25.3277 9.17816L25.2408 9.0972L25.1528 9.01688L25.0641 8.93752L24.9749 8.8592L24.8848 8.78176L24.7937 8.70504L24.7021 8.62944L24.6099 8.5548L24.5168 8.48112L24.4231 8.40832L24.3288 8.33672L24.2335 8.26568L24.1379 8.196L24.0415 8.1272L23.9444 8.05928L23.8469 7.99248L23.7483 7.92648L23.6498 7.86184L23.5501 7.79792L23.4501 7.73512L23.3493 7.67328L23.2481 7.61248L23.1463 7.5528L23.0442 7.49424L22.9411 7.4364L22.8379 7.37992L22.7339 7.32432L22.6295 7.26984L22.5247 7.21648L22.4193 7.16408L22.3135 7.11272L22.2072 7.06256L22.1004 7.01336L21.9934 6.96536L21.8858 6.91832L21.7743 6.87096L21.6695 6.82768L21.5605 6.78384L21.4516 6.74136L21.3419 6.69968L21.2321 6.65936L21.1219 6.62L21.0114 6.58184L20.9004 6.54464L20.7894 6.50872L20.6779 6.47384L20.5661 6.44008L20.4543 6.40752L20.3419 6.37597L20.2292 6.3455L20.1167 6.31628L20.0039 6.28817L19.8903 6.26109L19.7772 6.23526L19.6635 6.21046L19.5499 6.18686L19.4358 6.16433L19.3219 6.14298L19.2076 6.12274L19.0935 6.10368L18.9787 6.08568L18.8643 6.06887L18.7497 6.05318L18.6349 6.03861L18.5201 6.02518L18.4053 6.01291L18.2904 6.00176L18.1755 5.99174L18.0604 5.98286L17.9453 5.9751L17.8305 5.96849L17.7156 5.96301L17.6003 5.95865L17.4857 5.95543L17.3708 5.95334L17.256 5.95238L17.1411 5.95254L17.118 5.9528L17.1543 9.01056L17.2195 9.01024L17.3034 9.01072L17.3873 9.012L17.4713 9.01416L17.5554 9.01712L17.6395 9.02096L17.7235 9.0256L17.8077 9.03104L17.8919 9.03736L17.976 9.04448L18.0602 9.05248L18.1443 9.06128L18.2284 9.07096L18.3125 9.08144L18.3965 9.09272L18.4805 9.10496L18.5644 9.11792L18.6483 9.13176L18.7321 9.14648L18.8158 9.162L18.8994 9.1784L18.9829 9.1956L19.0663 9.2136L19.1496 9.23248L19.2327 9.25224L19.3158 9.2728L19.3986 9.29416L19.4813 9.3164L19.5639 9.33944L19.6463 9.36336L19.7285 9.38808L19.8105 9.4136L19.8923 9.44L19.9739 9.4672L20.0553 9.49528L20.1364 9.52416L20.2174 9.55384L20.298 9.58432L20.3785 9.61568L20.4587 9.64784L20.5386 9.6808L20.6182 9.71464L20.6975 9.7492L20.7766 9.78464L20.8553 9.8208L20.9337 9.85784L21.0119 9.89568L21.0896 9.93432L21.1671 9.97376L21.2442 10.014L21.3209 10.055L21.3973 10.0968L21.4733 10.1394L21.5489 10.1827L21.6242 10.2269L21.6991 10.2718L21.7735 10.3175L21.8475 10.364L21.9211 10.4113L21.9943 10.4593L22.067 10.508L22.1393 10.5575L22.2111 10.6078L22.2825 10.6588L22.3534 10.7106L22.4238 10.7631L22.4938 10.8163L22.5631 10.8703L22.6321 10.925L22.7005 10.9804L22.7684 11.0366L22.8358 11.0934L22.9027 11.151L22.969 11.2092L23.0347 11.2682L23.0999 11.3278L23.1645 11.3882L23.2286 11.4492L23.292 11.5109L23.3549 11.5733L23.4172 11.6363L23.4789 11.7001L23.54 11.7644L23.6004 11.8294L23.6603 11.8951L23.7195 11.9614L23.778 12.0283L23.8359 12.0959L23.8932 12.1641L23.9499 12.2329L24.0058 12.3023L24.0611 12.3723L24.1156 12.443L24.1695 12.5142L24.2227 12.586L24.2752 12.6583L24.3271 12.7313L24.3781 12.8048L24.4285 12.8789L24.4781 12.9535L24.527 13.0286L24.5751 13.1044L24.6226 13.1806L24.6693 13.2574L24.7152 13.3346L24.7603 13.4125L24.8047 13.4907L24.8483 13.5695L24.8911 13.6488L24.9332 13.7286L24.9745 13.8088L25.0149 13.8895L25.0546 13.9707L25.0935 14.0523L25.1315 14.1343L25.1687 14.2169L25.2051 14.2998L25.2407 14.3831L25.2754 14.4669L25.3093 14.551L25.3423 14.6356L25.3745 14.7205L25.4059 14.8058L25.4363 14.8915L25.466 14.9776L25.4948 15.064L25.5227 15.1508L25.5497 15.2378L25.5759 15.3253L25.6011 15.413L25.6255 15.5011L25.649 15.5895L25.6716 15.6782L25.6933 15.7671L25.7141 15.8563L25.734 15.9458L25.753 16.0356L25.7711 16.1256L25.7882 16.2158L25.8044 16.3064L25.8198 16.3971L25.8342 16.488L25.8476 16.5792L25.8602 16.6705L25.8718 16.762L25.8825 16.8538L25.8922 16.9457L25.901 17.0377L25.9089 17.1299L25.9158 17.2222L25.9218 17.3147L25.9267 17.4073L25.9308 17.5L25.9339 17.5929L25.9361 17.6858L25.9373 17.7788L25.9375 17.8719L25.9368 17.965L25.9351 18.0582L25.9325 18.1515L25.9289 18.2449L25.9243 18.3382L25.9188 18.4315L25.9123 18.525L25.9049 18.6183L25.8964 18.7117L25.8871 18.805L25.8767 18.8983L25.8654 18.9917L25.8531 19.0849L25.8398 19.1781L25.8255 19.2712L25.8103 19.3642L25.7942 19.4572L25.777 19.5501L25.7589 19.6429L25.7398 19.7355L25.7197 19.8281L25.6987 19.9205L25.6767 20.0127L25.6538 20.1048L25.6299 20.1968L25.605 20.2886L25.5791 20.3802L25.5523 20.4715L25.5246 20.5627L25.4959 20.6538L25.4661 20.7446L25.4355 20.835L25.4039 20.9254L25.3714 21.0154L25.3379 21.1052L25.3034 21.1947L25.268 21.284L25.2317 21.373L25.1944 21.4617L25.1562 21.55L25.1171 21.6381L25.077 21.7258L25.0359 21.8132L24.994 21.9002L24.9511 21.987L24.9073 22.0733L24.8626 22.1593L24.817 22.2448L24.7704 22.33L24.723 22.4148L24.6747 22.4992L24.6254 22.5831L24.5752 22.6667L24.5242 22.7498L24.4723 22.8325L24.4194 22.9146L24.3657 22.9964L24.3111 23.0776L24.2556 23.1584L24.1993 23.2387L24.1421 23.3185L24.084 23.3978L24.0251 23.4766L23.9654 23.5548L23.9047 23.6325L23.8433 23.7096L23.781 23.7862L23.7179 23.8622L23.6539 23.9378L23.5891 24.0126L23.5235 24.087L23.4571 24.1606L23.3899 24.2338L23.3219 24.3062L23.2532 24.3782L23.1836 24.4494L23.1133 24.52L23.0421 24.5899L22.9703 24.6593L22.8975 24.7279L22.8242 24.7958L22.75 24.8632L22.6751 24.9298L22.5995 24.9957L22.5231 25.061L22.446 25.1254L22.3682 25.1893L22.2897 25.2523L22.2104 25.3146L22.1305 25.3762L22.0499 25.4371L21.9687 25.4972L21.8867 25.5566L21.8041 25.6152L21.7208 25.673L21.6369 25.73L21.5523 25.7862L21.4671 25.8417L21.3812 25.8963L21.2948 25.9502L21.2077 26.0031L21.1201 26.0554L21.0318 26.1067L20.943 26.1572L20.8535 26.2069L20.7635 26.2558L20.673 26.3038L20.5819 26.3509L20.4902 26.3971L20.398 26.4425L20.3053 26.487L20.212 26.5306L20.1183 26.5734L20.024 26.6152L19.9293 26.6562L19.834 26.6962L19.7383 26.7353L19.6422 26.7735L19.5455 26.8108L19.4485 26.8472L19.351 26.8826L19.2531 26.9171L19.1547 26.9506L19.0559 26.9833L18.9567 27.0149L18.8572 27.0456L18.7573 27.0754L18.657 27.1041L18.5563 27.1319L18.4553 27.1587L18.3539 27.1846L18.2523 27.2094L18.1503 27.2334L18.0479 27.2562L17.9453 27.2782L17.8423 27.299L17.7391 27.319L17.6357 27.3379L17.5319 27.3558L17.4279 27.3727L17.3238 27.3886L17.2193 27.4034L17.1146 27.4173L17.0097 27.4302L16.9047 27.4419L16.7994 27.4527L16.6939 27.4625L16.5883 27.4712L16.4826 27.4789L16.3767 27.4855L16.2706 27.4911L16.1644 27.4957L16.0581 27.4992L15.9517 27.5017L15.8452 27.5031L15.7386 27.5035L15.6319 27.5029L15.5253 27.5011L15.4185 27.4984L15.3117 27.4946L15.2049 27.4897L15.098 27.4838L14.9912 27.4768L14.8843 27.4688L14.7775 27.4597L14.6707 27.4495L14.5639 27.4383L14.4572 27.4261L14.3506 27.4128L14.2439 27.3984L14.1375 27.383L14.0311 27.3665L13.9247 27.349L13.8185 27.3303L13.7124 27.3107L13.6065 27.29L13.5007 27.2682L13.3951 27.2454L13.2896 27.2215L13.1843 27.1966L13.0792 27.1706L12.9743 27.1435L12.8696 27.1154L12.7651 27.0863L12.661 27.0562L12.557 27.025L12.4532 26.9927L12.3498 26.9594L12.2467 26.925L12.1437 26.8897L12.0411 26.8533L11.9389 26.8158L11.8369 26.7774L11.7353 26.7378L11.634 26.6974L11.5331 26.6558L11.4325 26.6132L11.3323 26.5697L11.2326 26.525L11.1331 26.4794L11.0342 26.4329L10.9356 26.3853L10.8375 26.3366L10.7397 26.287L10.6425 26.2365L10.5457 26.1849L10.4494 26.1323L10.3535 26.0788L10.2582 26.0242L10.1633 25.9688L10.069 25.9123L9.97514 25.8549L9.88186 25.7966L9.78914 25.7372L9.69698 25.677L9.60538 25.6157L9.51434 25.5535L9.42386 25.4905L9.33402 25.4265L9.24474 25.3615L9.1561 25.2957L9.06802 25.2289L8.98066 25.1612L8.89394 25.0926L8.80786 25.0231L8.72242 24.9528L8.63762 24.8815L8.55354 24.8094L8.47018 24.7364L8.38746 24.6626L8.30546 24.5878L8.22426 24.5123L8.1437 24.4359L8.06386 24.3586L7.98482 24.2806L7.90658 24.2017L7.82906 24.1219L7.75226 24.0414L7.67626 23.9601L7.60114 23.878L7.52674 23.795L7.45314 23.7114L7.38042 23.6269L7.30842 23.5417L7.23738 23.4557L7.16706 23.3689L7.0977 23.2814L7.02914 23.1932L6.96146 23.1042L6.89466 23.0146L6.82866 22.9242L6.76362 22.8331L6.69954 22.7414L6.63626 22.6489L6.57394 22.5558L6.51255 22.462L6.45208 22.3675L6.39253 22.2724L6.33394 22.1766L6.27629 22.0802L6.2196 21.9833L6.16388 21.8856L6.10912 21.7874L6.05534 21.6886L6.00255 21.5892L5.95074 21.4892L5.89993 21.3886L5.85013 21.2875L5.80134 21.1858L5.75356 21.0837L5.70681 20.9809L5.66108 20.8777L5.6164 20.7739L5.57275 20.6696L5.53014 20.5649L5.4886 20.4597L5.4481 20.3539L5.40867 20.2478L5.3703 20.1412L5.33301 20.0341L5.2968 19.9266L5.26168 19.8187L5.22764 19.7104L5.19469 19.6018L5.16285 19.4926L5.1321 19.3832L5.10246 19.2734L5.07394 19.1631L5.04653 19.0526L5.02024 18.9418L4.99508 18.8306L4.97104 18.719L4.94813 18.6073L4.92636 18.4952L4.90573 18.3828L4.88625 18.2702L4.86791 18.1573L4.85072 18.0442L4.83468 17.9308L4.8198 17.8172L4.80608 17.7034L4.79352 17.5894L4.78212 17.4752L4.77188 17.3608L4.76283 17.2462L4.75494 17.1316L4.74822 17.0167L4.74268 16.9018L4.73832 16.7867L4.73515 16.6715L4.73315 16.5562L4.73233 16.4408L4.73271 16.3254L4.73426 16.2098L4.73701 16.0943L4.74094 15.9787L4.74607 15.863L4.75239 15.7474L4.75989 15.6318L4.7686 15.5162L4.77848 15.4005L4.78957 15.285L4.80186 15.1694L4.81533 15.0539L4.83001 14.9385L4.84587 14.8231L4.86293 14.7078L4.88118 14.5927L4.90062 14.4777L4.92126 14.3628L4.94309 14.248L4.96612 14.1334L4.99032 14.019L5.01573 13.9046L5.04233 13.7906L5.0701 13.6766L5.09906 13.563L5.12921 13.4495L5.16054 13.3362L5.19305 13.2233L5.22675 13.1106L5.26161 12.9981L5.29766 12.8858L5.33488 12.774L5.37326 12.6624L5.41282 12.5511L5.45354 12.4402L5.49542 12.3295L5.53846 12.2193L5.58266 12.1094L5.62801 11.9998L5.67452 11.8907L5.72217 11.7819L5.77097 11.6736L5.82089 11.5657L5.87196 11.4582L5.92416 11.3511L5.9775 11.2446L6.03196 11.1384L6.08753 11.0328L6.14422 10.9276L6.20203 10.823L6.26094 10.7188L6.32095 10.6151L6.38206 10.5121L6.44427 10.4095L6.50756 10.3075L6.57194 10.2061L6.63738 10.1052L6.70394 10.005L6.77146 9.90528L6.84018 9.80624L6.90986 9.70776L6.98058 9.60992L7.05242 9.5128L7.12522 9.41624L7.19914 9.3204L7.27402 9.2252L7.34994 9.13072L7.42682 9.03696L7.50474 8.94384L7.5837 8.85144L7.66362 8.75976L7.7445 8.66888L7.82642 8.57872L7.90922 8.48928L7.99306 8.40064L8.07786 8.31272L8.16354 8.22568L8.25018 8.13936L8.33778 8.05384L8.42634 7.9692L8.51578 7.88528L8.6061 7.80232L8.69738 7.72008L8.78954 7.6388L8.8825 7.55832L8.97642 7.47872L9.07122 7.4L9.16682 7.32216L9.2633 7.2452L9.36066 7.1692L9.45882 7.09408L9.55778 7.01992L9.65762 6.94664L9.75818 6.87432L9.85954 6.80296L9.96178 6.73256L10.0647 6.66312L10.1684 6.59472L10.273 6.5272L10.3782 6.46072L10.4842 6.39523L10.5909 6.33074L10.6983 6.26727L10.8064 6.20482L10.9153 6.1434L11.0248 6.08301L11.135 6.02367L11.2459 5.96538L11.3574 5.90815L11.4695 5.85198L11.5823 5.79689L11.6958 5.74287L11.8099 5.68994L11.9245 5.6381L12.0398 5.58736L12.1556 5.53773L12.272 5.48921L12.389 5.4418L12.5064 5.39552L12.6245 5.35037L12.7431 5.30635L12.8622 5.26348L12.9818 5.22175L13.1019 5.18118L13.2224 5.14176L13.3434 5.10351L13.4649 5.06642L13.5868 5.03051L13.7092 4.99578L13.8319 4.96223L13.9551 4.92987L14.0787 4.8987L14.2027 4.86874L14.3271 4.83998L14.4518 4.81241L14.5768 4.78606L14.7022 4.76092L14.8279 4.73701L14.9539 4.71431L15.0803 4.69284L15.2069 4.6726L15.3338 4.65359L15.4609 4.63582L15.5883 4.61929L15.6358 4.61359ZM15.6895 9.14888L15.6529 6.05751L15.5485 6.0721L15.4363 6.08893L15.3239 6.10687L15.2123 6.12584L15.1006 6.14597L14.9894 6.16713L14.8784 6.18938L14.7679 6.21266L14.6575 6.23706L14.5475 6.26253L14.4377 6.28905L14.3284 6.31662L14.2192 6.34529L14.1143 6.37392L14.0026 6.40568L13.8947 6.43744L13.7872 6.47024L13.6803 6.504L13.5737 6.53888L13.4675 6.5748L13.3617 6.61168L13.2565 6.64952L13.1517 6.68848L13.0474 6.72832L12.9435 6.76928L12.8403 6.81112L12.7372 6.85408L12.6349 6.89792L12.5331 6.94272L12.4319 6.98848L12.3311 7.03528L12.2307 7.08304L12.1313 7.1316L12.032 7.18128L11.9338 7.23176L11.8357 7.28336L11.7386 7.3356L11.6416 7.38912L11.5456 7.4432L11.4503 7.49832L11.3554 7.5544L11.2612 7.61128L11.1675 7.6692L11.0748 7.72776L10.9825 7.78736L10.8911 7.84776L10.8003 7.90896L10.7101 7.97112L10.6205 8.03416L10.5319 8.09776L10.4439 8.16248L10.3565 8.22792L10.2699 8.29416L10.1842 8.36112L10.099 8.42904L10.0147 8.4976L9.93122 8.56696L9.84834 8.63728L9.7665 8.70808L9.68522 8.77984L9.60474 8.85232L9.52514 8.92544L9.44642 8.99928L9.36826 9.074L9.29122 9.1492L9.2149 9.2252L9.1393 9.302L9.06466 9.37936L8.99082 9.45752L8.91786 9.53624L8.84578 9.6156L8.7745 9.69568L8.70402 9.77648L8.63474 9.85768L8.5661 9.93968L8.49834 10.0223L8.43154 10.1054L8.3657 10.1891L8.30058 10.2736L8.2365 10.3585L8.1733 10.444L8.11106 10.5301L8.0497 10.6167L7.98938 10.7038L7.92994 10.7914L7.87138 10.8797L7.81378 10.9684L7.75722 11.0575L7.70162 11.1472L7.6469 11.2375L7.59314 11.3281L7.54042 11.4192L7.48858 11.5108L7.43786 11.6026L7.38802 11.6951L7.33906 11.7881L7.2913 11.8812L7.24442 11.975L7.19858 12.069L7.1537 12.1634L7.10986 12.2582L7.06698 12.3534L7.02514 12.4489L6.98426 12.5447L6.9445 12.6409L6.9057 12.7374L6.86786 12.8342L6.83106 12.9314L6.79538 13.0287L6.76058 13.1265L6.72698 13.2243L6.69426 13.3226L6.66266 13.421L6.63202 13.5198L6.6025 13.6186L6.57394 13.7178L6.5465 13.817L6.52003 13.9166L6.49462 14.0163L6.47026 14.1162L6.44695 14.2163L6.42467 14.3165L6.40343 14.4169L6.38326 14.5174L6.36412 14.6179L6.34602 14.7187L6.32899 14.8195L6.31298 14.9205L6.29804 15.0214L6.28413 15.1225L6.27128 15.2236L6.25948 15.3248L6.24872 15.426L6.239 15.5273L6.23034 15.6286L6.22272 15.7298L6.21615 15.8311L6.21061 15.9324L6.20612 16.0336L6.20268 16.1348L6.20028 16.2359L6.19892 16.337L6.19859 16.4382L6.1993 16.5391L6.20105 16.64L6.20384 16.7408L6.20764 16.8414L6.21249 16.9421L6.21836 17.0426L6.22526 17.1428L6.23319 17.243L6.24213 17.343L6.2521 17.4429L6.26308 17.5426L6.27508 17.6421L6.28809 17.7414L6.30211 17.8405L6.31714 17.9394L6.33317 18.038L6.3502 18.1365L6.36823 18.2347L6.38724 18.3326L6.40726 18.4303L6.42825 18.5277L6.45024 18.6249L6.47319 18.7216L6.49714 18.8182L6.52205 18.9144L6.54794 19.0103L6.57474 19.1058L6.60258 19.2011L6.6313 19.296L6.66106 19.3906L6.6917 19.4848L6.7233 19.5786L6.75586 19.6719L6.7893 19.765L6.8237 19.8576L6.85906 19.9498L6.8953 20.0416L6.93242 20.133L6.9705 20.2239L7.00946 20.3144L7.04938 20.4044L7.0901 20.494L7.13178 20.583L7.17434 20.6717L7.2177 20.7598L7.26202 20.8474L7.30714 20.9346L7.35314 21.0213L7.40002 21.1074L7.4477 21.193L7.49626 21.278L7.54562 21.3625L7.59586 21.4464L7.6469 21.5298L7.69874 21.6126L7.75138 21.6949L7.8049 21.7766L7.85906 21.8576L7.91418 21.9382L7.96994 22.018L8.02658 22.0973L8.08394 22.1759L8.1421 22.2539L8.20098 22.3313L8.26066 22.4081L8.32098 22.4842L8.3821 22.5596L8.44394 22.6344L8.5065 22.7086L8.56978 22.7819L8.63378 22.8548L8.69842 22.9268L8.76378 22.9982L8.82978 23.0689L8.8965 23.1389L8.96386 23.2082L9.03194 23.2767L9.10058 23.3446L9.16994 23.4117L9.23994 23.4781L9.31042 23.5437L9.3817 23.6086L9.45346 23.6727L9.52586 23.7361L9.5989 23.7987L9.6725 23.8606L9.74666 23.9217L9.82138 23.9819L9.89666 24.0414L9.9725 24.1002L10.0489 24.1582L10.1259 24.2153L10.2032 24.2716L10.2811 24.3271L10.3596 24.3818L10.4386 24.4358L10.5181 24.4889L10.598 24.5411L10.6784 24.5926L10.7593 24.6432L10.8406 24.693L10.9223 24.7419L11.0046 24.79L11.0871 24.8372L11.1703 24.8836L11.2536 24.9291L11.3375 24.9738L11.4218 25.0177L11.5063 25.0606L11.5914 25.1027L11.6768 25.1439L11.7625 25.1843L11.8485 25.2238L11.935 25.2624L12.0216 25.3001L12.1087 25.3369L12.196 25.3729L12.2837 25.4079L12.3715 25.4421L12.4598 25.4754L12.5483 25.5078L12.637 25.5393L12.7259 25.5698L12.8152 25.5996L12.9047 25.6283L12.9943 25.6562L13.0843 25.6832L13.1743 25.7093L13.2646 25.7345L13.3551 25.7587L13.4457 25.7822L13.5365 25.8046L13.6275 25.8261L13.7186 25.8467L13.8099 25.8665L13.9012 25.8853L13.9927 25.9031L14.0843 25.9201L14.1759 25.9362L14.2678 25.9514L14.3596 25.9655L14.4515 25.9789L14.5435 25.9913L14.6355 26.0028L14.7276 26.0134L14.8197 26.023L14.9119 26.0318L15.004 26.0396L15.0962 26.0465L15.1883 26.0526L15.2804 26.0576L15.3725 26.0618L15.4647 26.0651L15.5567 26.0675L15.6486 26.069L15.7405 26.0695L15.8323 26.0692L15.9241 26.0679L16.0158 26.0658L16.1073 26.0628L16.1988 26.0589L16.2901 26.054L16.3813 26.0483L16.4723 26.0417L16.5633 26.0342L16.654 26.0258L16.7447 26.0165L16.8351 26.0063L16.9254 25.9953L17.0155 25.9834L17.1053 25.9706L17.195 25.957L17.2844 25.9424L17.3735 25.927L17.4626 25.9107L17.5513 25.8936L17.6398 25.8757L17.7281 25.8568L17.8159 25.8371L17.9036 25.8166L17.991 25.7952L18.0781 25.773L18.1649 25.75L18.2514 25.7261L18.3375 25.7014L18.4234 25.6758L18.5088 25.6495L18.5939 25.6223L18.6788 25.5943L18.7632 25.5655L18.8473 25.5359L18.931 25.5055L19.0143 25.4743L19.0971 25.4423L19.1796 25.4095L19.2618 25.3759L19.3435 25.3416L19.4247 25.3065L19.5055 25.2706L19.5859 25.234L19.6659 25.1966L19.7454 25.1584L19.8243 25.1196L19.903 25.0798L19.981 25.0395L20.0587 24.9983L20.1356 24.9566L20.2123 24.914L20.2884 24.8707L20.3639 24.8267L20.4391 24.782L20.5136 24.7366L20.5875 24.6906L20.6611 24.6438L20.7339 24.5964L20.8063 24.5482L20.8783 24.4994L20.9495 24.4499L21.02 24.3999L21.0903 24.349L21.1597 24.2978L21.2287 24.2457L21.2971 24.193L21.3646 24.1398L21.4319 24.0858L21.4984 24.0312L21.5641 23.9762L21.6295 23.9202L21.6941 23.864L21.758 23.8072L21.8215 23.7495L21.8841 23.6916L21.9462 23.633L22.0076 23.5738L22.0683 23.5141L22.1283 23.4538L22.1878 23.393L22.2465 23.3316L22.3044 23.2698L22.3618 23.2074L22.4185 23.1445L22.4743 23.0812L22.5297 23.0172L22.5842 22.9529L22.6379 22.8881L22.6911 22.8226L22.7435 22.757L22.7951 22.6907L22.8461 22.6241L22.8963 22.5569L22.9458 22.4894L22.9944 22.4215L23.0425 22.353L23.0897 22.2842L23.1362 22.215L23.182 22.1454L23.2268 22.0755L23.2711 22.0051L23.3146 21.9343L23.3573 21.8633L23.3991 21.7918L23.4404 21.7199L23.4807 21.648L23.5203 21.5754L23.5591 21.5026L23.5971 21.4296L23.6344 21.356L23.6707 21.2826L23.7065 21.2083L23.7412 21.1343L23.7755 21.0595L23.8086 20.9849L23.8411 20.9096L23.8728 20.8344L23.9036 20.7589L23.9337 20.683L23.963 20.607L23.9913 20.5309L24.0191 20.4543L24.0458 20.3777L24.0718 20.3009L24.097 20.2238L24.1214 20.1466L24.145 20.0692L24.1677 19.9918L24.1896 19.914L24.2107 19.8362L24.231 19.7582L24.2504 19.6802L24.2691 19.6021L24.2869 19.5236L24.3039 19.4452L24.3201 19.3667L24.3354 19.2882L24.3499 19.2096L24.3636 19.1306L24.3765 19.052L24.3886 18.9731L24.3998 18.8942L24.4102 18.8154L24.4198 18.7364L24.4286 18.6572L24.4365 18.5786L24.4437 18.4993L24.45 18.4203L24.4555 18.3415L24.4602 18.2625L24.464 18.1836L24.4671 18.1048L24.4693 18.0258L24.4707 17.9472L24.4713 17.8683L24.4711 17.7897L24.4701 17.711L24.4683 17.6327L24.4656 17.5542L24.4622 17.4759L24.4579 17.3979L24.4529 17.3197L24.4471 17.2417L24.4405 17.1641L24.4331 17.0862L24.4248 17.0089L24.4158 16.9314L24.406 16.8542L24.3955 16.7772L24.3841 16.7002L24.3719 16.6236L24.3591 16.5472L24.3454 16.471L24.3309 16.395L24.3156 16.3189L24.2996 16.2434L24.2829 16.1681L24.2654 16.0929L24.2471 16.0178L24.2281 15.9434L24.2083 15.8688L24.1878 15.7948L24.1665 15.7209L24.1445 15.6474L24.1218 15.5741L24.0983 15.501L24.0741 15.4285L24.0492 15.3562L24.0235 15.2839L23.9972 15.2123L23.9701 15.1409L23.9423 15.0699L23.9139 14.9991L23.8847 14.9286L23.8548 14.8588L23.8242 14.789L23.793 14.7198L23.7611 14.651L23.7284 14.5824L23.6951 14.5142L23.6612 14.4466L23.6265 14.3791L23.5913 14.3123L23.5554 14.2459L23.5187 14.1796L23.4816 14.1141L23.4437 14.0488L23.4052 13.9841L23.366 13.9196L23.3264 13.8558L23.2859 13.7922L23.2451 13.7294L23.2035 13.6669L23.1613 13.6049L23.1184 13.5432L23.0751 13.4822L23.0312 13.4217L22.9866 13.3614L22.9415 13.3019L22.8958 13.2428L22.8497 13.1843L22.8028 13.1262L22.7555 13.0686L22.7075 13.0116L22.6591 12.955L22.6103 12.8992L22.5607 12.8437L22.5107 12.7889L22.4602 12.7345L22.4093 12.6809L22.3576 12.6275L22.3057 12.575L22.2531 12.5227L22.2001 12.4713L22.1467 12.4204L22.0928 12.37L22.0383 12.3202L21.9835 12.271L21.9282 12.2225L21.8723 12.1743L21.8163 12.1271L21.7596 12.0802L21.7026 12.034L21.6451 11.9885L21.5872 11.9434L21.529 11.899L21.4705 11.8554L21.4113 11.8122L21.3517 11.7696L21.2921 11.7279L21.2317 11.6866L21.1714 11.6462L21.1105 11.6062L21.0492 11.5668L20.9875 11.5281L20.9258 11.4902L20.8634 11.4527L20.8009 11.4161L20.7379 11.3799L20.6749 11.3446L20.6114 11.3099L20.5475 11.2758L20.4835 11.2423L20.4192 11.2097L20.3546 11.1775L20.2896 11.1461L20.2246 11.1154L20.1594 11.0854L20.0935 11.0558L20.0279 11.0272L19.9618 10.9992L19.8954 10.9718L19.8289 10.9451L19.7623 10.9192L19.6955 10.8939L19.6282 10.8692L19.5611 10.8454L19.4935 10.8221L19.4259 10.7995L19.3583 10.7777L19.2903 10.7566L19.2224 10.7361L19.1539 10.7162L19.0857 10.6972L19.0173 10.6788L18.9487 10.6611L18.8801 10.6441L18.8111 10.6278L18.7423 10.6122L18.6735 10.5973L18.6044 10.583L18.5351 10.5694L18.4663 10.5567L18.3969 10.5446L18.3277 10.5331L18.2582 10.5223L18.1891 10.5123L18.1194 10.5029L18.0502 10.4943L17.9807 10.4863L17.9113 10.479L17.8419 10.4725L17.7724 10.4666L17.7032 10.4614L17.6336 10.4569L17.5643 10.453L17.4952 10.4499L17.4256 10.4474L17.3566 10.4457L17.2875 10.4446L17.2184 10.4442L17.1712 10.4444L17.207 13.4647L17.2283 13.4648L17.268 13.4654L17.3078 13.4663L17.3476 13.4676L17.3875 13.4694L17.4274 13.4716L17.4673 13.4742L17.5073 13.4772L17.5473 13.4806L17.5874 13.4845L17.6275 13.4887L17.6675 13.4934L17.7077 13.4985L17.7478 13.504L17.7879 13.5099L17.8281 13.5163L17.8683 13.5231L17.9083 13.5303L17.9485 13.538L17.9886 13.546L18.0287 13.5546L18.0687 13.5634L18.1088 13.5728L18.1487 13.5826L18.1887 13.5927L18.2287 13.6034L18.2685 13.6144L18.3083 13.6258L18.3481 13.6378L18.3878 13.6501L18.4274 13.6629L18.467 13.6761L18.5064 13.6897L18.5459 13.7037L18.5851 13.7182L18.6243 13.733L18.6635 13.7483L18.7025 13.7641L18.7414 13.7802L18.7802 13.7968L18.8189 13.8138L18.8575 13.8313L18.8959 13.8491L18.9343 13.8674L18.9724 13.8861L19.0105 13.9052L19.0483 13.9248L19.0861 13.9447L19.1237 13.9651L19.1611 13.9859L19.1984 14.0071L19.2355 14.0287L19.2724 14.0507L19.3092 14.0732L19.3458 14.0961L19.3822 14.1194L19.4183 14.143L19.4543 14.167L19.4902 14.1916L19.5258 14.2165L19.5611 14.2418L19.5963 14.2674L19.6313 14.2935L19.666 14.32L19.7005 14.3469L19.7348 14.3742L19.7688 14.4018L19.8026 14.4298L19.8362 14.4583L19.8695 14.4871L19.9025 14.5163L19.9353 14.5459L19.9678 14.5759L20 14.6062L20.0319 14.637L20.0637 14.6681L20.0951 14.6995L20.1262 14.7314L20.1571 14.7635L20.1875 14.7961L20.2178 14.829L20.2477 14.8623L20.2774 14.8959L20.3067 14.9299L20.3356 14.9642L20.3643 14.9989L20.3927 15.0339L20.4207 15.0693L20.4483 15.105L20.4757 15.141L20.5027 15.1774L20.5294 15.2141L20.5556 15.251L20.5816 15.2884L20.6072 15.3261L20.6324 15.3641L20.6573 15.4023L20.6819 15.441L20.7059 15.4798L20.7297 15.519L20.7531 15.5586L20.776 15.5983L20.7987 15.6384L20.8208 15.6788L20.8427 15.7194L20.8641 15.7604L20.8851 15.8016L20.9057 15.843L20.9259 15.8848L20.9456 15.9269L20.965 15.9691L20.9839 16.0117L21.0025 16.0545L21.0206 16.0975L21.0383 16.1408L21.0555 16.1843L21.0723 16.2281L21.0887 16.2721L21.1046 16.3163L21.12 16.3608L21.1351 16.4054L21.1496 16.4503L21.1637 16.4954L21.1774 16.5407L21.1906 16.5862L21.2033 16.632L21.2156 16.6778L21.2275 16.7239L21.2387 16.7702L21.2496 16.8167L21.26 16.8633L21.2699 16.9102L21.2794 16.9571L21.2883 17.0042L21.2967 17.0515L21.3047 17.099L21.3123 17.1465L21.3192 17.1942L21.3257 17.2421L21.3317 17.2901L21.3372 17.3382L21.3423 17.3865L21.3467 17.4348L21.3507 17.4833L21.3543 17.5319L21.3572 17.5806L21.3597 17.6294L21.3616 17.6782L21.3631 17.7272L21.364 17.7762L21.3645 17.8254L21.3643 17.8745L21.3638 17.9238L21.3627 17.9731L21.361 18.0225L21.3588 18.0719L21.3561 18.1214L21.3529 18.1709L21.3491 18.2204L21.3448 18.27L21.34 18.3196L21.3347 18.3692L21.3288 18.4188L21.3224 18.4685L21.3155 18.5182L21.3081 18.5678L21.3001 18.6174L21.2915 18.667L21.2825 18.7166L21.2729 18.7662L21.2628 18.8157L21.2521 18.8652L21.2409 18.9146L21.2292 18.9641L21.2169 19.0134L21.2041 19.0628L21.1908 19.112L21.1769 19.1612L21.1625 19.2102L21.1475 19.2593L21.1321 19.3082L21.1161 19.357L21.0995 19.4058L21.0825 19.4545L21.0648 19.503L21.0467 19.5514L21.028 19.5997L21.0088 19.6479L20.9891 19.6959L20.9688 19.7438L20.948 19.7916L20.9267 19.8393L20.9048 19.8867L20.8824 19.934L20.8595 19.9812L20.8361 20.0282L20.8121 20.075L20.7876 20.1216L20.7626 20.168L20.7371 20.2142L20.7111 20.2603L20.6845 20.3062L20.6574 20.3518L20.6299 20.3972L20.6017 20.4425L20.5731 20.4874L20.544 20.5322L20.5143 20.5767L20.4843 20.621L20.4536 20.665L20.4225 20.7088L20.3908 20.7523L20.3587 20.7956L20.3261 20.8386L20.293 20.8813L20.2594 20.9238L20.2253 20.9659L20.1907 21.0078L20.1557 21.0494L20.1202 21.0906L20.0841 21.1316L20.0476 21.1722L20.0107 21.2126L19.9732 21.2526L19.9354 21.2923L19.897 21.3318L19.8582 21.3708L19.8189 21.4094L19.7792 21.4478L19.739 21.4858L19.6983 21.5234L19.6573 21.5607L19.6158 21.5977L19.5739 21.6342L19.5315 21.6704L19.4887 21.7062L19.4454 21.7416L19.4017 21.7766L19.3576 21.8112L19.3131 21.8454L19.2683 21.8793L19.2229 21.9127L19.1772 21.9457L19.1311 21.9782L19.0846 22.0105L19.0376 22.0422L18.9903 22.0735L18.9427 22.1043L18.8946 22.1348L18.8461 22.1648L18.7973 22.1943L18.7481 22.2234L18.6986 22.252L18.6487 22.2802L18.5983 22.3078L18.5478 22.3351L18.4968 22.3618L18.4455 22.3882L18.3939 22.4139L18.3419 22.4393L18.2896 22.4641L18.237 22.4884L18.1841 22.5122L18.1308 22.5355L18.0773 22.5584L18.0235 22.5807L17.9693 22.6025L17.9148 22.6238L17.8601 22.6446L17.8051 22.6648L17.7498 22.6846L17.6943 22.7038L17.6384 22.7224L17.5823 22.7406L17.526 22.7581L17.4695 22.7751L17.4126 22.7917L17.3555 22.8076L17.2983 22.823L17.2407 22.8378L17.183 22.8522L17.125 22.8658L17.0668 22.879L17.0084 22.8916L16.9499 22.9037L16.8911 22.9151L16.8321 22.926L16.773 22.9363L16.7136 22.9461L16.6542 22.9552L16.5945 22.9638L16.5347 22.9718L16.4747 22.9792L16.4147 22.986L16.3544 22.9922L16.294 22.9978L16.2335 23.0028L16.1729 23.0073L16.1121 23.011L16.0513 23.0143L15.9903 23.017L15.9293 23.019L15.8681 23.0203L15.8069 23.0211L15.7456 23.0214L15.6843 23.021L15.6228 23.0199L15.5613 23.0182L15.4998 23.016L15.4382 23.0131L15.3765 23.0096L15.3148 23.0055L15.2531 23.0008L15.1915 22.9954L15.1297 22.9894L15.068 22.9829L15.0063 22.9756L14.9446 22.9678L14.8828 22.9593L14.8211 22.9502L14.7595 22.9405L14.6979 22.9302L14.6363 22.9192L14.5747 22.9076L14.5132 22.8954L14.4518 22.8826L14.3904 22.8691L14.3291 22.855L14.2679 22.8402L14.2067 22.825L14.1457 22.809L14.0848 22.7923L14.0239 22.7751L13.9633 22.7573L13.9027 22.7388L13.8422 22.7197L13.7819 22.7L13.7216 22.6797L13.6616 22.6587L13.6017 22.6371L13.5419 22.6149L13.4824 22.5921L13.423 22.5686L13.3638 22.5446L13.3047 22.5199L13.2459 22.4946L13.1873 22.4687L13.1288 22.4422L13.0707 22.4151L13.0126 22.3874L12.9548 22.359L12.8973 22.3301L12.84 22.3006L12.783 22.2704L12.7262 22.2397L12.6696 22.2083L12.6134 22.1764L12.5573 22.1438L12.5016 22.1107L12.4462 22.077L12.3911 22.0427L12.3362 22.0078L12.2816 21.9724L12.2274 21.9363L12.1735 21.8997L12.1199 21.8625L12.0667 21.8247L12.0137 21.7864L11.9611 21.7474L11.9089 21.708L11.8571 21.668L11.8055 21.6274L11.7544 21.5862L11.7036 21.5446L11.6532 21.5023L11.6032 21.4595L11.5536 21.4162L11.5044 21.3723L11.4556 21.3279L11.4072 21.283L11.3592 21.2375L11.3117 21.1915L11.2645 21.145L11.2179 21.098L11.1716 21.0505L11.1258 21.0024L11.0804 20.9539L11.0355 20.9048L10.9911 20.8553L10.9471 20.8053L10.9037 20.7547L10.8607 20.7038L10.8181 20.6522L10.7761 20.6002L10.7346 20.5478L10.6935 20.495L10.653 20.4416L10.613 20.3878L10.5735 20.3335L10.5346 20.2788L10.4961 20.2236L10.4582 20.168L10.4208 20.112L10.384 20.0555L10.3478 19.9986L10.312 19.9414L10.2769 19.8837L10.2423 19.8255L10.2083 19.767L10.1748 19.7081L10.1419 19.6488L10.1096 19.5891L10.0779 19.529L10.0468 19.4686L10.0163 19.4078L9.98634 19.3466L9.95706 19.285L9.92834 19.2232L9.90026 19.161L9.87282 19.0984L9.84594 19.0354L9.8197 18.9722L9.7941 18.9086L9.76914 18.8448L9.74482 18.7806L9.72122 18.7161L9.69818 18.6513L9.67578 18.5862L9.65402 18.5209L9.63298 18.4552L9.61258 18.3893L9.59282 18.3231L9.5737 18.2566L9.5553 18.1899L9.53762 18.123L9.5205 18.0558L9.50418 17.9883L9.4885 17.9207L9.47346 17.8528L9.45914 17.7847L9.44554 17.7164L9.43258 17.6479L9.42034 17.5792L9.40882 17.5103L9.39802 17.4413L9.38786 17.372L9.37842 17.3026L9.36978 17.233L9.36178 17.1634L9.3545 17.0934L9.34794 17.0234L9.3421 16.9533L9.33698 16.883L9.33258 16.8126L9.3289 16.7422L9.32594 16.6716L9.3237 16.6009L9.32226 16.5301L9.32154 16.4593L9.32146 16.3883L9.32218 16.3173L9.3237 16.2462L9.32586 16.1751L9.32882 16.1039L9.3325 16.0327L9.3369 15.9615L9.34202 15.8902L9.34794 15.819L9.35458 15.7477L9.36194 15.6764L9.3701 15.6051L9.37898 15.5338L9.38858 15.4626L9.39898 15.3914L9.4101 15.3202L9.42202 15.2491L9.43458 15.178L9.44794 15.107L9.4621 15.036L9.47698 14.9651L9.49258 14.8943L9.5089 14.8236L9.52602 14.753L9.54386 14.6825L9.5625 14.6121L9.58186 14.5418L9.60194 14.4717L9.62274 14.4016L9.64434 14.3318L9.66666 14.262L9.6897 14.1924L9.71354 14.123L9.7381 14.0538L9.76338 13.9847L9.78938 13.9158L9.81618 13.8472L9.8437 13.7787L9.87194 13.7104L9.9009 13.6424L9.93058 13.5746L9.96106 13.507L9.99218 13.4396L10.0241 13.3725L10.0567 13.3057L10.09 13.239L10.124 13.1727L10.1588 13.1067L10.1943 13.041L10.2305 12.9755L10.2674 12.9103L10.305 12.8454L10.3433 12.781L10.3823 12.7167L10.422 12.6528L10.4625 12.5893L10.5036 12.526L10.5454 12.4631L10.5879 12.4006L10.6311 12.3385L10.6749 12.2767L10.7195 12.2154L10.7647 12.1543L10.8105 12.0937L10.8571 12.0335L10.9043 11.9737L10.9522 11.9143L11.0007 11.8553L11.0499 11.7968L11.0997 11.7386L11.1502 11.681L11.2013 11.6238L11.2531 11.567L11.3055 11.5107L11.3585 11.4549L11.4122 11.3995L11.4664 11.3446L11.5213 11.2902L11.5768 11.2363L11.6329 11.183L11.6896 11.1301L11.7469 11.0777L11.8047 11.0258L11.8632 10.9745L11.9223 10.9238L11.9819 10.8734L12.0422 10.8238L12.1029 10.7746L12.1643 10.726L12.2261 10.678L12.2886 10.6306L12.3515 10.5837L12.4151 10.5374L12.4791 10.4917L12.5437 10.4466L12.6088 10.402L12.6745 10.3581L12.7406 10.3148L12.8072 10.2722L12.8744 10.2301L12.942 10.1886L13.0102 10.1478L13.0787 10.1077L13.1479 10.0682L13.2174 10.0293L13.2874 9.99104L13.3579 9.95352L13.4287 9.91664L13.5001 9.8804L13.5719 9.84488L13.6441 9.81L13.7167 9.77584L13.7898 9.74232L13.8632 9.70952L13.9371 9.67744L14.0114 9.646L14.086 9.61528L14.161 9.58536L14.2364 9.55608L14.3122 9.52752L14.3883 9.49968L14.4647 9.47264L14.5416 9.44624L14.6187 9.42064L14.6963 9.39576L14.774 9.3716L14.8522 9.34824L14.9306 9.3256L15.0093 9.30376L15.0883 9.28264L15.1676 9.26224L15.2472 9.24264L15.3271 9.22384L15.4072 9.20584L15.4875 9.18856L15.5682 9.17208L15.649 9.1564L15.6895 9.14888ZM16.6831 14.9571L15.761 15.1774L15.7068 10.6098L15.6634 10.6196L15.5979 10.635L15.5326 10.6511L15.4677 10.6678L15.4029 10.685L15.3385 10.703L15.2741 10.7216L15.2103 10.7406L15.1464 10.7605L15.0833 10.7807L15.02 10.8018L14.9571 10.8234L14.8946 10.8455L14.8323 10.8682L14.7705 10.8915L14.7088 10.9155L14.6475 10.94L14.5865 10.965L14.5256 10.9908L14.4655 11.0169L14.4055 11.0438L14.3459 11.071L14.2865 11.099L14.2276 11.1274L14.1689 11.1565L14.1108 11.186L14.053 11.2161L13.9955 11.2467L13.9385 11.2778L13.8818 11.3095L13.8255 11.3418L13.7698 11.3744L13.714 11.4078L13.659 11.4414L13.6044 11.4757L13.5502 11.5104L13.4963 11.5457L13.4429 11.5814L13.3899 11.6177L13.3374 11.6543L13.2854 11.6914L13.2336 11.7291L13.1824 11.7673L13.1317 11.8058L13.0814 11.8449L13.0316 11.8842L12.9823 11.9242L12.9334 11.9646L12.8849 12.0054L12.8371 12.0466L12.7896 12.0882L12.7427 12.1302L12.6962 12.1727L12.6502 12.2157L12.6047 12.259L12.5598 12.3026L12.5152 12.3467L12.4713 12.3911L12.4279 12.436L12.385 12.4811L12.3424 12.5269L12.3006 12.5727L12.2592 12.619L12.2183 12.6658L12.1781 12.7126L12.1383 12.7601L12.0991 12.8076L12.0603 12.8558L12.0223 12.904L11.9846 12.9527L11.9475 13.0018L11.9111 13.051L11.8751 13.1005L11.8397 13.1503L11.8048 13.2006L11.7705 13.251L11.7368 13.3018L11.7037 13.3526L11.6711 13.4038L11.6391 13.4554L11.6077 13.5071L11.5767 13.5593L11.5465 13.6114L11.5167 13.6639L11.4875 13.7166L11.4591 13.7695L11.4311 13.8226L11.4037 13.876L11.3768 13.9297L11.3507 13.9833L11.325 14.0374L11.2999 14.0914L11.2755 14.1458L11.2516 14.2002L11.2283 14.255L11.2057 14.3097L11.1836 14.3647L11.1622 14.4198L11.1412 14.4751L11.121 14.5304L11.1013 14.586L11.0822 14.6417L11.0637 14.6974L11.0458 14.7533L11.0285 14.8094L11.0118 14.8654L10.9958 14.9215L10.9803 14.9778L10.9653 15.0342L10.9511 15.0906L10.9374 15.1471L10.9243 15.2037L10.9118 15.2603L10.8999 15.317L10.8887 15.3737L10.8779 15.4304L10.8679 15.4873L10.8584 15.544L10.8495 15.6008L10.8412 15.6578L10.8335 15.7145L10.8265 15.7714L10.82 15.8282L10.8141 15.885L10.8088 15.942L10.8041 15.9987L10.8 16.0555L10.7965 16.1123L10.7935 16.169L10.7912 16.2256L10.7895 16.2822L10.7883 16.3388L10.7877 16.3953L10.7878 16.4517L10.7883 16.508L10.7895 16.5643L10.7913 16.6205L10.7936 16.6766L10.7965 16.7326L10.8 16.7884L10.8041 16.8442L10.8087 16.8998L10.8139 16.9554L10.8197 17.0109L10.826 17.066L10.8329 17.1213L10.8403 17.1762L10.8484 17.2311L10.857 17.2858L10.8661 17.3403L10.8758 17.3948L10.886 17.449L10.8968 17.503L10.9081 17.5568L10.92 17.6106L10.9324 17.664L10.9454 17.7174L10.9588 17.7703L10.9729 17.8234L10.9874 17.8759L11.0024 17.9285L11.018 17.9806L11.0341 18.0327L11.0507 18.0845L11.0679 18.1359L11.0855 18.1874L11.1037 18.2384L11.1223 18.2891L11.1415 18.3398L11.1611 18.3901L11.1813 18.4401L11.2019 18.4898L11.223 18.5393L11.2447 18.5886L11.2667 18.6375L11.2893 18.6862L11.3123 18.7345L11.3358 18.7825L11.3599 18.8304L11.3842 18.8778L11.4091 18.9249L11.4344 18.9718L11.4603 19.0182L11.4865 19.0645L11.5131 19.1104L11.5403 19.1558L11.5679 19.2011L11.5958 19.246L11.6242 19.2905L11.6531 19.3347L11.6823 19.3786L11.7119 19.4222L11.7419 19.4651L11.7724 19.508L11.8033 19.5504L11.8345 19.5924L11.8663 19.6342L11.8983 19.6754L11.9307 19.7163L11.9635 19.7569L11.9967 19.7971L12.0301 19.8368L12.0641 19.8762L12.0983 19.9153L12.1329 19.9538L12.168 19.9921L12.2032 20.0298L12.2389 20.0673L12.2749 20.1042L12.3111 20.1408L12.3479 20.177L12.3848 20.2127L12.4221 20.2481L12.4597 20.283L12.4976 20.3174L12.5359 20.3515L12.5743 20.3851L12.6131 20.4183L12.6522 20.4511L12.6915 20.4834L12.7312 20.5154L12.7712 20.5468L12.8113 20.5778L12.8518 20.6083L12.8925 20.6385L12.9335 20.6682L12.9747 20.6974L13.0161 20.7262L13.0578 20.7545L13.0997 20.7823L13.1418 20.8097L13.1841 20.8366L13.2268 20.8632L13.2695 20.8891L13.3125 20.9147L13.3558 20.9398L13.3991 20.9644L13.4426 20.9886L13.4865 21.0123L13.5304 21.0355L13.5745 21.0582L13.6187 21.0805L13.6633 21.1023L13.7078 21.1236L13.7527 21.1445L13.7975 21.1649L13.8425 21.1847L13.8878 21.2042L13.9331 21.2231L13.9785 21.2416L14.0241 21.2596L14.0698 21.277L14.1157 21.2941L14.1615 21.3106L14.2076 21.3267L14.2536 21.3422L14.2998 21.3574L14.3461 21.372L14.3925 21.3862L14.4389 21.3998L14.4854 21.413L14.532 21.4256L14.5787 21.4378L14.6253 21.4495L14.672 21.4608L14.7187 21.4715L14.7655 21.4818L14.8124 21.4916L14.8593 21.5009L14.9062 21.5098L14.9531 21.5181L15 21.526L15.047 21.5334L15.0939 21.5403L15.1407 21.5467L15.1877 21.5526L15.2346 21.5582L15.2815 21.5632L15.3284 21.5677L15.3753 21.5718L15.4221 21.5754L15.4688 21.5785L15.5156 21.5811L15.5623 21.5833L15.6088 21.585L15.6555 21.5862L15.7019 21.587L15.7483 21.5874L15.7947 21.5872L15.841 21.5866L15.8873 21.5855L15.9335 21.584L15.9794 21.5821L16.0253 21.5796L16.0713 21.5767L16.1169 21.5734L16.1626 21.5696L16.208 21.5654L16.2535 21.5607L16.2987 21.5555L16.3438 21.55L16.3889 21.544L16.4337 21.5375L16.4783 21.5306L16.5231 21.5234L16.5675 21.5156L16.6117 21.5074L16.6559 21.4988L16.6999 21.4898L16.7435 21.4803L16.7871 21.4705L16.8306 21.4602L16.8739 21.4494L16.9169 21.4384L16.9598 21.4269L17.0024 21.415L17.0451 21.4026L17.0873 21.3898L17.1292 21.3767L17.1713 21.3631L17.2129 21.3492L17.2543 21.335L17.2955 21.3202L17.3365 21.3051L17.3774 21.2896L17.4179 21.2738L17.4582 21.2575L17.4983 21.241L17.5381 21.2239L17.5778 21.2066L17.617 21.1889L17.6562 21.1708L17.695 21.1524L17.7335 21.1336L17.7719 21.1145L17.8098 21.095L17.8476 21.0752L17.8851 21.055L17.9223 21.0345L17.9592 21.0137L17.9959 20.9925L18.0323 20.971L18.0683 20.9491L18.1041 20.927L18.1396 20.9045L18.1748 20.8818L18.2098 20.8586L18.2443 20.8353L18.2787 20.8115L18.3127 20.7875L18.3463 20.7633L18.3796 20.7386L18.4127 20.7138L18.4454 20.6886L18.4778 20.6631L18.5099 20.6374L18.5416 20.6114L18.5731 20.5852L18.6041 20.5586L18.6348 20.5318L18.6653 20.5048L18.6954 20.4774L18.7251 20.4499L18.7544 20.4222L18.7835 20.3941L18.8123 20.3658L18.8407 20.3373L18.8687 20.3086L18.8963 20.2795L18.9235 20.2504L18.9506 20.2209L18.9771 20.1914L19.0034 20.1614L19.0292 20.1314L19.0547 20.1012L19.0799 20.0706L19.1046 20.0401L19.1291 20.0092L19.1531 19.9782L19.1767 19.947L19.2001 19.9156L19.223 19.8842L19.2455 19.8523L19.2678 19.8204L19.2895 19.7885L19.311 19.7562L19.3321 19.7238L19.3527 19.6914L19.373 19.6587L19.3929 19.6259L19.4124 19.593L19.4316 19.5599L19.4503 19.5267L19.4687 19.4934L19.4867 19.4599L19.5043 19.4265L19.5215 19.3928L19.5384 19.359L19.5549 19.3252L19.571 19.2911L19.5867 19.2571L19.6019 19.223L19.6168 19.1888L19.6314 19.1544L19.6455 19.1201L19.6593 19.0854L19.6726 19.0511L19.6856 19.0162L19.6981 18.9819L19.7103 18.947L19.7222 18.9122L19.7335 18.8774L19.7446 18.8426L19.7552 18.8078L19.7655 18.7726L19.7753 18.7378L19.7849 18.7026L19.7939 18.6678L19.8027 18.6326L19.811 18.5974L19.8189 18.5625L19.8264 18.5276L19.8336 18.4922L19.8404 18.4573L19.8468 18.422L19.8528 18.3871L19.8585 18.3521L19.8638 18.317L19.8687 18.2818L19.8731 18.2468L19.8773 18.2119L19.8811 18.1771L19.8844 18.142L19.8875 18.1072L19.8901 18.0723L19.8923 18.0375L19.8943 18.0028L19.8958 17.9682L19.8969 17.9337L19.8977 17.899L19.8982 17.8643L19.8983 17.83L19.8979 17.7957L19.8973 17.7614L19.8963 17.7273L19.8949 17.693L19.8931 17.6593L19.8911 17.6249L19.8887 17.5914L19.8859 17.5577L19.8827 17.5238L19.8792 17.4902L19.8755 17.457L19.8712 17.4234L19.8667 17.3904L19.8619 17.3572L19.8567 17.3245L19.8511 17.2914L19.8453 17.2586L19.8391 17.2262L19.8327 17.1938L19.8258 17.1613L19.8186 17.1292L19.8111 17.0971L19.8033 17.0653L19.7952 17.0337L19.7867 17.0018L19.778 16.9706L19.7689 16.9391L19.7595 16.9082L19.7499 16.8772L19.7399 16.8465L19.7295 16.8158L19.7189 16.7853L19.7081 16.7552L19.6969 16.7252L19.6854 16.6951L19.6736 16.6655L19.6615 16.6358L19.6493 16.6067L19.6366 16.5774L19.6238 16.5485L19.6106 16.5198L19.5971 16.4912L19.5835 16.4629L19.5695 16.4347L19.5552 16.4067L19.5407 16.379L19.5259 16.3515L19.511 16.3242L19.4957 16.2971L19.4801 16.2702L19.4644 16.2436L19.4484 16.2172L19.4321 16.1909L19.4156 16.165L19.3989 16.1393L19.3819 16.1138L19.3647 16.0884L19.3474 16.0634L19.3297 16.0386L19.3119 16.014L19.2938 15.9897L19.2755 15.9656L19.2571 15.9418L19.2383 15.9181L19.2194 15.8948L19.2003 15.8717L19.181 15.8488L19.1615 15.8262L19.1419 15.8038L19.1219 15.7818L19.1019 15.7599L19.0816 15.7382L19.0612 15.717L19.0406 15.6959L19.0198 15.675L18.9989 15.6546L18.9778 15.6343L18.9566 15.6143L18.935 15.5945L18.9135 15.575L18.8918 15.5558L18.8699 15.5369L18.8479 15.5182L18.8257 15.4998L18.8034 15.4817L18.781 15.4638L18.7584 15.4462L18.7357 15.4289L18.7129 15.4119L18.6899 15.3951L18.6668 15.3786L18.6437 15.3625L18.6204 15.3465L18.5971 15.3309L18.5735 15.3155L18.5499 15.3004L18.5263 15.2856L18.5023 15.271L18.4785 15.2568L18.4546 15.2429L18.4305 15.2292L18.4063 15.2158L18.3821 15.2026L18.3579 15.1898L18.3335 15.1772L18.3091 15.165L18.2845 15.1529L18.26 15.1412L18.2354 15.1298L18.2107 15.1186L18.186 15.1078L18.1611 15.0971L18.1365 15.0869L18.1115 15.0769L18.0866 15.0671L18.0617 15.0577L18.0367 15.0485L18.0118 15.0396L17.9867 15.031L17.9617 15.0226L17.9367 15.0146L17.9116 15.0067L17.8865 14.9992L17.8615 14.992L17.8363 14.985L17.8113 14.9784L17.7862 14.972L17.7611 14.9658L17.7359 14.96L17.7109 14.9544L17.6858 14.9491L17.6607 14.9441L17.6358 14.9393L17.6108 14.9348L17.5857 14.9306L17.5609 14.9266L17.5358 14.923L17.5111 14.9195L17.4861 14.9163L17.4613 14.9134L17.4367 14.9108L17.4119 14.9085L17.3872 14.9063L17.3626 14.9045L17.338 14.9029L17.3135 14.9015L17.289 14.9005L17.2647 14.8997L17.2403 14.899L17.2161 14.8987L17.1919 14.8986L17.1678 14.8989L17.1437 14.8993L17.1198 14.8999L17.0959 14.9009L17.0722 14.902L17.0483 14.9034L17.0248 14.905L17.0013 14.9069L16.9779 14.909L16.9546 14.9114L16.9312 14.9139L16.9082 14.9167L16.8851 14.9198L16.8623 14.923L16.8394 14.9266L16.8167 14.9302L16.7941 14.9342L16.7718 14.9383L16.7493 14.9427L16.7271 14.9473L16.705 14.9521L16.6831 14.9571Z" fill="white"/>
</svg>
