<svg width="33" height="32" viewBox="0 0 33 32" fill="none" xmlns="http://www.w3.org/2000/svg">
<path fill-rule="evenodd" clip-rule="evenodd" d="M16.167 32C25.0036 32 32.167 24.8366 32.167 16C32.167 7.16345 25.0036 0 16.167 0C7.33043 0 0.166992 7.16345 0.166992 16C0.166992 24.8366 7.33043 32 16.167 32ZM21.1585 7.45348C21.4014 6.59044 20.5639 6.08011 19.799 6.62504L9.12149 14.2317C8.29197 14.8226 8.42245 16 9.31749 16H12.1292V15.9782H17.609L13.144 17.5537L11.1756 24.5466C10.9326 25.4096 11.7701 25.9199 12.535 25.375L23.2125 17.7684C24.0421 17.1774 23.9115 16 23.0165 16H18.7527L21.1585 7.45348Z" fill="white"/>
</svg>
